<?xml version="1.0" encoding="UTF-8" standalone="no"?>
<!-- Created with Inkscape (http://www.inkscape.org/) -->

<svg
   xmlns:dc="http://purl.org/dc/elements/1.1/"
   xmlns:cc="http://creativecommons.org/ns#"
   xmlns:rdf="http://www.w3.org/1999/02/22-rdf-syntax-ns#"
   xmlns:svg="http://www.w3.org/2000/svg"
   xmlns="http://www.w3.org/2000/svg"
   xmlns:sodipodi="http://sodipodi.sourceforge.net/DTD/sodipodi-0.dtd"
   xmlns:inkscape="http://www.inkscape.org/namespaces/inkscape"
   width="744.09448819"
   height="1052.3622047"
   id="svg2"
   version="1.1"
   inkscape:version="0.48.2 r9819"
   sodipodi:docname="drawing.svg"
   inkscape:export-filename="C:\Users\akash\BrainSTEM-hackathon\PI_hackathon\name_700.png"
   inkscape:export-xdpi="124.46282"
   inkscape:export-ydpi="124.46282">
  <defs
     id="defs4" />
  <sodipodi:namedview
     id="base"
     pagecolor="#ffffff"
     bordercolor="#666666"
     borderopacity="1.0"
     inkscape:pageopacity="0.0"
     inkscape:pageshadow="2"
     inkscape:zoom="0.97"
     inkscape:cx="-1118.913"
     inkscape:cy="873.5429"
     inkscape:document-units="px"
     inkscape:current-layer="layer1"
     showgrid="false"
     inkscape:window-width="1024"
     inkscape:window-height="706"
     inkscape:window-x="-8"
     inkscape:window-y="-8"
     inkscape:window-maximized="1" />
  <metadata
     id="metadata7">
    <rdf:RDF>
      <cc:Work
         rdf:about="">
        <dc:format>image/svg+xml</dc:format>
        <dc:type
           rdf:resource="http://purl.org/dc/dcmitype/StillImage" />
        <dc:title></dc:title>
      </cc:Work>
    </rdf:RDF>
  </metadata>
  <g
     inkscape:label="Layer 1"
     inkscape:groupmode="layer"
     id="layer1">
    <flowRoot
       xml:space="preserve"
       id="flowRoot2985"
       style="font-size:20px;font-style:normal;font-variant:normal;font-weight:normal;font-stretch:normal;line-height:125%;letter-spacing:0px;word-spacing:0px;fill:#000000;fill-opacity:1;stroke:none;font-family:Vani;-inkscape-font-specification:Vani"
       inkscape:export-filename="C:\Users\akash\BrainSTEM-hackathon\PI_hackathon\name_800.png"
       inkscape:export-xdpi="142.24321"
       inkscape:export-ydpi="142.24321"
       transform="translate(474.83295,-247.39729)"><flowRegion
         id="flowRegion2987"><rect
           id="rect2989"
           width="668.57135"
           height="391.42856"
           x="-1222.8572"
           y="-99.066391" /></flowRegion><flowPara
         id="flowPara2991"
         style="font-size:144px;font-style:normal;font-variant:normal;font-weight:normal;font-stretch:normal;fill:#4d4d4d;font-family:Future Sallow;-inkscape-font-specification:Future Sallow">Ropuzzle</flowPara><flowPara
         style="font-size:144px;font-style:normal;font-variant:normal;font-weight:normal;font-stretch:normal;font-family:Future Sallow;-inkscape-font-specification:Future Sallow"
         id="flowPara3013" /></flowRoot>    <flowRoot
       xml:space="preserve"
       id="flowRoot3045"
       style="font-size:20px;font-style:normal;font-variant:normal;font-weight:normal;font-stretch:normal;line-height:125%;letter-spacing:0px;word-spacing:0px;fill:#000000;fill-opacity:1;stroke:none;font-family:Vani;-inkscape-font-specification:Vani"><flowRegion
         id="flowRegion3047"><rect
           id="rect3049"
           width="427.72278"
           height="181.18813"
           x="-663.36633"
           y="-220.90515" /></flowRegion><flowPara
         id="flowPara3051" /></flowRoot>    <flowRoot
       xml:space="preserve"
       id="flowRoot3053"
       style="fill:black;stroke:none;stroke-opacity:1;stroke-width:1px;stroke-linejoin:miter;stroke-linecap:butt;fill-opacity:1;font-family:Vani;font-style:normal;font-weight:normal;font-size:20px;line-height:125%;letter-spacing:0px;word-spacing:0px;-inkscape-font-specification:Vani;font-stretch:normal;font-variant:normal"><flowRegion
         id="flowRegion3055"><rect
           id="rect3057"
           width="619.802"
           height="282.17822"
           x="-1245.5446"
           y="-171.40019" /></flowRegion><flowPara
         id="flowPara3059" /></flowRoot>    <flowRoot
       xml:space="preserve"
       id="flowRoot3634"
       style="fill:black;stroke:none;stroke-opacity:1;stroke-width:1px;stroke-linejoin:miter;stroke-linecap:butt;fill-opacity:1;font-family:Vani;font-style:normal;font-weight:normal;font-size:20px;line-height:125%;letter-spacing:0px;word-spacing:0px;-inkscape-font-specification:Vani;font-stretch:normal;font-variant:normal"><flowRegion
         id="flowRegion3636"><rect
           id="rect3638"
           width="637.62378"
           height="216.83168"
           x="-735.64355"
           y="-125.85564" /></flowRegion><flowPara
         id="flowPara3640"></flowPara></flowRoot>    <path
       style="font-size:20px;font-style:normal;font-variant:normal;font-weight:normal;font-stretch:normal;line-height:125%;letter-spacing:0px;word-spacing:0px;fill:#000000;fill-opacity:1;stroke:none;font-family:Vani;-inkscape-font-specification:Vani"
       d="m -1636.5498,191.555 c -2.9356,9e-5 -5.4541,1.02792 -7.5313,3.0625 -2.0771,2.03475 -3.0937,4.53035 -3.0937,7.46875 0,2.97664 1.0058,5.47468 3.0625,7.53125 2.0566,2.05671 4.5859,3.09382 7.5625,3.09375 l 0,14.78125 6.2812,0 0,-21.15625 -6.2812,0 c -2.8096,7e-5 -4.2188,-1.39934 -4.2188,-4.25 0,-2.81242 1.4092,-4.21867 4.2188,-4.21875 l 25.2187,0 c 4.6992,8e-5 8.7056,1.64315 12,4.9375 3.2944,3.29451 4.9375,7.2696 4.9375,11.96875 0,4.69928 -1.6431,8.70709 -4.9375,12 -3.2944,3.29302 -7.3008,4.93755 -12,4.9375 l -29.4375,0 0,-14.78125 -6.4062,-4.21875 0,52.65625 6.4062,0 0,-27.375 19.25,0 25.5,37.84375 7.9375,0 -25.8125,-37.84375 4.7813,0 0,-0.125 c 5.9999,-0.54781 10.9936,-3.00142 15,-7.40625 4.0063,-4.40473 6.0312,-9.64643 6.0312,-15.6875 0,-6.4218 -2.271,-11.87541 -6.7812,-16.40625 -4.5103,-4.53068 -10.0059,-6.81241 -16.4688,-6.8125 l -25.2187,0 z m 414.0625,0 0,6.3125 6.4062,0 c 2.8096,8e-5 4.2188,1.40633 4.2188,4.21875 l 0,23.21875 6.2812,0 0,-23.21875 c 0,-2.89738 -1.0058,-5.38224 -3.0625,-7.4375 -2.0566,-2.05509 -4.5429,-3.09366 -7.4375,-3.09375 l -6.4062,0 z m 0,10.53125 0,63.28125 6.4062,0 0,-29.5625 10.5,0 0,-6.28125 -10.5,0 0,-27.4375 -6.4062,0 z m -327.4063,14.78125 c -7.1338,6e-5 -13.5029,2.12604 -19.125,6.40625 -5.622,4.28032 -9.2187,9.86821 -10.8125,16.75 l 6.5938,0 c 1.5117,-5.03609 4.4687,-9.11323 8.875,-12.21875 4.2773,-3.06147 9.0957,-4.59369 14.4687,-4.59375 6.6269,6e-5 12.3315,2.24029 17.0938,6.6875 2.9584,2.76284 4.9732,5.94305 6.0937,9.53125 l 6.625,0 c -1.2526,-5.35962 -4.0132,-10.06392 -8.2812,-14.125 -5.959,-5.62201 -13.1407,-8.43744 -21.5313,-8.4375 z m 38,0 0,6.34375 6.4063,0 c 2.8095,6e-5 4.2187,1.42779 4.2187,4.28125 l 0,18.9375 6.2813,0 0,-18.9375 c 0,-2.97944 -0.9952,-5.5058 -3.0313,-7.5625 -2.0361,-2.05658 -4.5332,-3.06244 -7.4687,-3.0625 l -6.4063,0 z m 41.1563,0 c -7.6348,6e-5 -14.3243,2.37213 -20.0313,7.15625 l -0.3125,9.6875 c 4.8252,-7.00483 11.6162,-10.49994 20.3438,-10.5 6.6298,6e-5 12.3002,2.24029 17.0625,6.6875 4.7621,4.44731 7.1562,9.94535 7.1562,16.53125 0,6.58889 -2.3941,12.11525 -7.1562,16.5625 -4.7623,4.44727 -10.4327,6.65626 -17.0625,6.65625 -5.7891,10e-6 -10.9278,-1.73534 -15.375,-5.21875 -4.5733,-3.56542 -7.4073,-8.15916 -8.5,-13.78125 l -10.875,0 0,-23.15625 -6.4063,0 0,63.1875 6.4063,0 0,-33.71875 6.1562,0 c 2.3086,5.78908 6.0889,10.40284 11.3125,13.84375 5.2236,3.44092 10.9883,5.15625 17.2813,5.15625 8.3495,0 15.5092,-2.84619 21.5312,-8.53125 6.0219,-5.68504 9.0312,-12.69139 9.0313,-21 -10e-5,-8.34957 -3.0186,-15.37691 -9.0625,-21.125 -5.9561,-5.62201 -13.1065,-8.43744 -21.5,-8.4375 z m 302.2812,0 c -7.0898,6e-5 -13.2851,2.11676 -18.5937,6.375 -5.3086,4.25835 -8.7315,9.85551 -10.2813,16.78125 l 6.5938,0 c 1.5117,-5.0771 4.2841,-9.15571 8.3125,-12.21875 4.0283,-3.06293 8.6836,-4.59369 13.9687,-4.59375 6.126,6e-5 11.0889,2.03423 14.9063,6.0625 3.6093,3.77641 5.662,8.78227 6.125,15.03125 l -29.4688,0 0,6.34375 35.875,0 0,-6.34375 -0.125,0 c -0.4629,-7.92769 -3.1338,-14.4228 -8,-19.5 -5.0361,-5.28803 -11.4668,-7.93744 -19.3125,-7.9375 z m -264.125,0.0625 0,6.28125 6.4063,0 c 2.8095,6e-5 4.2187,1.42779 4.2187,4.28125 l 0,18.9375 6.2813,0 0,-18.9375 c 0,-2.97944 -0.9952,-5.49653 -3.0313,-7.53125 -2.0361,-2.03461 -4.5332,-3.03119 -7.4687,-3.03125 l -6.4063,0 z m 59.0938,0 0,29.5 c -10e-5,6.67385 -1.8497,12.16017 -5.5,16.4375 -3.8175,4.53223 -8.9864,6.78126 -15.5313,6.78125 -9.9873,10e-6 -16.2119,-6.32909 -18.6875,-19 l -12.9687,0 0,-23.15625 -6.4063,0 0,37.875 6.4063,0 0,-8.40625 7.9375,0 c 3.6943,12.6709 11.5927,19 23.7187,19 8.2646,0 14.9228,-2.89844 20,-8.6875 4.8662,-5.49608 7.3125,-12.45017 7.3125,-20.84375 l 0,-29.5 -6.2812,0 z m 13.75,0 0,6.28125 47,0 -16.9375,19 8.5,0 22.6562,-25.28125 -61.2187,0 z m 68.625,0 0,6.28125 47,0 -16.9375,19 8.5,0 22.6562,-25.28125 -61.2187,0 z m -39.6875,10.5625 -28.9375,32.53125 0,9.3125 14.8437,-16.59375 14.3438,0 5.6562,-6.3125 -14.3437,0 16.9375,-18.9375 -8.5,0 z m 68.625,0 -28.9375,32.53125 0,9.3125 14.8437,-16.59375 14.3438,0 5.6562,-6.3125 -14.3437,0 16.9375,-18.9375 -8.5,0 z m -301.4375,4.21875 -6.2813,8.3125 0,4.28125 -10.5,0 c -0.085,0.67386 -0.125,1.3721 -0.125,2.125 0,8.30861 3.0401,15.34572 9.125,21.09375 5.9561,5.62207 13.1065,8.4375 21.5,8.4375 2.6016,0 6.3926,-0.77246 11.3438,-2.28125 5.704,-1.76367 8.581,-3.41601 8.625,-4.96875 7.0898,-5.91503 10.6249,-13.34275 10.625,-22.28125 0,-0.63921 -0.027,-1.25103 -0.062,-1.875 l -6.375,0 c 0.045,0.61923 0.094,1.23562 0.094,1.875 0,6.46291 -2.4356,11.95851 -7.2812,16.46875 -4.8458,4.51026 -10.5088,6.75001 -16.9688,6.75 -5.792,10e-6 -10.9272,-1.75683 -15.4375,-5.28125 -4.5102,-3.5244 -7.3164,-8.09666 -8.4062,-13.71875 l 3.8437,0 0,2.09375 6.2813,8.4375 0,-29.46875 z m 382.5,0 -6.2813,8.3125 0,4.28125 -10.5,0 c -0.085,0.67386 -0.125,1.3721 -0.125,2.125 0,8.30861 3.0401,15.34572 9.125,21.09375 5.9561,5.62207 13.1065,8.4375 21.5,8.4375 7.5937,0 14.2617,-2.4248 19.9688,-7.25 l 0.3125,-9.6875 c -4.7813,7.08985 -11.5538,10.62501 -20.2813,10.625 -5.792,10e-6 -10.9272,-1.75683 -15.4375,-5.28125 -4.5102,-3.5244 -7.3164,-8.09666 -8.4062,-13.71875 l 3.8437,0 0,2.09375 6.2813,8.4375 0,-29.46875 z m -30.75,8.3125 0,25.34375 c 0,2.85352 -1.4092,4.28126 -4.2188,4.28125 l -6.4062,0 0,6.3125 6.4062,0 c 2.8946,0 5.3809,-1.03857 7.4375,-3.09375 2.0567,-2.05517 3.0625,-4.56152 3.0625,-7.5 l 0,-25.34375 -6.2812,0 z m -424.6875,2.1875 0,23.15625 c 0,2.85352 -1.4092,4.28126 -4.2188,4.28125 l -6.4062,0 0,6.3125 6.4062,0 c 2.8946,0 5.3809,-1.03857 7.4375,-3.09375 2.0567,-2.05517 3.0625,-4.56152 3.0625,-7.5 l 0,-23.15625 -6.2812,0 z m 293.7187,14.75 -16.9062,18.875 0.125,0 -0.125,0.125 61.2187,0 0,-6.3125 -47.125,0 11.25,-12.5625 -8.4375,-0.125 z m 68.625,0 -16.9062,18.875 0.125,0 -0.125,0.125 61.2187,0 0,-6.3125 -47.125,0 11.25,-12.5625 -8.4375,-0.125 z m -227.0625,2.0625 0,31.65625 c 0,2.80955 -1.4092,4.21873 -4.2187,4.21875 l -6.4063,0 0,6.28125 6.4063,0 c 2.9355,-3e-5 5.4326,-0.99661 7.4687,-3.03125 2.0361,-2.03469 3.0313,-4.53322 3.0313,-7.46875 l 0,-21.03125 -6.2813,-10.625 z m 79.3125,2.15625 0,4.1875 c 0,2.85352 -1.4092,4.28126 -4.2187,4.28125 l -6.4063,0 0,6.3125 6.4063,0 c 2.5166,0 4.7563,-0.80176 6.75,-2.375 1.9936,-1.57324 3.2461,-3.60839 3.75,-6.125 l -4.7813,-6.28125 -1.5,0 z"
       id="flowRoot2985-4"
       inkscape:connector-curvature="0"
       inkscape:export-filename="C:\Users\akash\BrainSTEM-hackathon\PI_hackathon\name_700.png"
       inkscape:export-xdpi="124.46282"
       inkscape:export-ydpi="124.46282" />
    <path
       style="fill:#333333;fill-opacity:1;stroke:#000000;stroke-width:4.17852449;stroke-miterlimit:4;stroke-opacity:0;stroke-dasharray:none;stroke-dashoffset:0"
       d="m -1572.9394,-313.19902 0,-2.74422 4.1743,0 c 6.324,0 6.1928,0.31449 6.1928,-14.83629 l 0,-12.60586 3.1015,0 3.1015,0 -0.2048,13.00496 c -0.1999,12.68658 -0.242,13.05902 -1.719,15.21314 -2.3383,3.4103 -5.1867,4.71248 -10.3081,4.71248 l -4.3382,0 0,-2.74421 z"
       id="path3690"
       inkscape:connector-curvature="0" />
    <path
       style="fill:#333333;fill-opacity:1;stroke:#000000;stroke-width:4.17852449;stroke-miterlimit:4;stroke-opacity:0;stroke-dasharray:none;stroke-dashoffset:0"
       d="m -1511.3914,298.39996 0,-2.66073 3.9933,-0.32054 c 6.6031,-0.53003 6.3268,0.2559 6.5164,-18.53795 l 0.1623,-16.08092 2.6252,4.36479 2.6252,4.3648 -0.1859,12.67365 c -0.1711,11.66486 -0.2858,12.81055 -1.4413,14.39353 -2.0116,2.75604 -6.014,4.46409 -10.4605,4.46409 l -3.8347,0 0,-2.66072 z"
       id="path3692"
       inkscape:connector-curvature="0"
       inkscape:export-filename="C:\Users\akash\BrainSTEM-hackathon\PI_hackathon\name_700.png"
       inkscape:export-xdpi="124.46282"
       inkscape:export-ydpi="124.46282" />
    <path
       style="fill:#333333;fill-opacity:1;stroke:#000000;stroke-width:4.17852449;stroke-miterlimit:4;stroke-opacity:0;stroke-dasharray:none;stroke-dashoffset:0"
       d="m -1427.1911,-350.09347 c 0,-12.60685 -0.1,-12.80633 -6.4031,-12.80633 l -3.9639,0 0,-2.74422 0,-2.74421 4.4835,0 c 5.0851,0 7.5255,1.18067 9.9853,4.83084 1.3137,1.94933 1.3867,2.63046 1.3867,12.94428 l 0,10.88667 -2.7443,0 -2.7442,0 0,-10.36703 z"
       id="path3694"
       inkscape:connector-curvature="0" />
    <path
       style="fill:#333333;fill-opacity:1;stroke:#000000;stroke-width:4.17852449;stroke-miterlimit:4;stroke-opacity:0;stroke-dasharray:none;stroke-dashoffset:0"
       d="m -1347.9138,-350.09347 c 0,-12.60685 -0.1,-12.80633 -6.4031,-12.80633 l -3.9639,0 0,-2.74422 0,-2.74421 4.4835,0 c 5.0851,0 7.5255,1.18067 9.9854,4.83084 1.3136,1.94933 1.3866,2.63046 1.3866,12.94428 l 0,10.88667 -2.7442,0 -2.7443,0 0,-10.36703 z"
       id="path3696"
       inkscape:connector-curvature="0" />
    <path
       style="fill:#333333;fill-opacity:1;stroke:#000000;stroke-width:4.17852449;stroke-miterlimit:4;stroke-opacity:0;stroke-dasharray:none;stroke-dashoffset:0"
       d="m -1358.2808,-313.19902 0,-2.74422 3.9639,0 c 5.1269,0 6.4031,-1.09393 6.4031,-5.48843 0,-1.67702 0.2511,-3.04913 0.5579,-3.04913 0.7614,0 4.9306,5.75049 4.9306,6.80068 0,1.58451 -2.9708,5.21969 -5.086,6.22342 -1.3423,0.63694 -3.6883,1.00189 -6.4404,1.00189 l -4.3291,0 0,-2.74421 z"
       id="path3698"
       inkscape:connector-curvature="0" />
    <path
       style="fill:#333333;fill-opacity:1;stroke:#000000;stroke-width:4.17852449;stroke-miterlimit:4;stroke-opacity:0;stroke-dasharray:none;stroke-dashoffset:0"
       d="m -1285.7116,-321.61119 0,-3.83848 14.4533,-16.28577 14.4532,-16.28576 3.5366,0 c 1.9452,0 3.5366,0.15651 3.5366,0.3478 0,0.19129 -3.5674,4.28831 -7.9277,9.1045 -4.3602,4.81618 -7.9277,8.90421 -7.9277,9.08452 0,0.1803 3.0359,0.40542 6.7464,0.50025 l 6.7464,0.17243 -2.2203,2.59176 -2.2202,2.59176 -7.23,0 -7.2301,0 -7.14,7.92773 c -3.927,4.36026 -7.2382,7.92773 -7.3583,7.92773 -0.12,0 -0.2182,-1.72731 -0.2182,-3.83847 z"
       id="path3700"
       inkscape:connector-curvature="0" />
    <path
       style="fill:#333333;fill-opacity:1;stroke:#000000;stroke-width:4.17852449;stroke-miterlimit:4;stroke-opacity:0;stroke-dasharray:none;stroke-dashoffset:0"
       d="m -1216.7849,-321.63691 -0.016,-4.16912 14.3494,-16.10758 14.3494,-16.10759 3.7008,0 3.7008,0 -3.0631,3.5065 c -1.6847,1.92857 -5.2771,5.97629 -7.9832,8.99492 -2.7061,3.01864 -4.9224,5.69425 -4.925,5.9458 0,0.25155 3.0495,0.45737 6.7825,0.45737 l 6.7873,0 -2.3661,2.68677 -2.3661,2.68678 -7.3315,0.0574 -7.3316,0.0574 -5.4748,6.13296 c -3.0111,3.37312 -6.222,7.0092 -7.1354,8.08018 l -1.6606,1.94724 -0.016,-4.16911 z"
       id="path3702"
       inkscape:connector-curvature="0" />
    <path
       style="fill:#333333;fill-opacity:1;stroke:#000000;stroke-width:4.17852449;stroke-miterlimit:4;stroke-opacity:0;stroke-dasharray:none;stroke-dashoffset:0"
       d="m -1148.5008,-352.22786 0,-31.40601 3.0491,0 3.0491,0 0,13.72107 0,13.72108 5.1836,0 5.1835,0 0,3.04912 0,3.04913 -5.1835,0 -5.1836,0 0,14.63581 0,14.63582 -3.0491,0 -3.0491,0 0,-31.40602 z"
       id="path3704"
       inkscape:connector-curvature="0" />
    <path
       style="fill:#333333;fill-opacity:1;stroke:#000000;stroke-width:4.17852449;stroke-miterlimit:4;stroke-opacity:0;stroke-dasharray:none;stroke-dashoffset:0"
       d="m -1102.8873,-311.63226 c -11.898,-3.80428 -19.4784,-13.14086 -20.9529,-25.80733 l -0.4081,-3.5065 5.5587,0 5.5587,0 0,-2.46546 c 0,-1.95506 0.5365,-3.17675 2.5917,-5.90122 l 2.5918,-3.43575 0.1727,6.47724 c 0.095,3.56249 0.095,9.55955 0,13.32681 l -0.1727,6.84957 -2.5918,-3.43556 c -1.4255,-1.88956 -2.5917,-3.99618 -2.5917,-4.68138 0,-1.01724 -0.3917,-1.24582 -2.1344,-1.24582 -1.8087,0 -2.1335,0.2094 -2.1285,1.37211 0.011,2.49039 2.9391,7.7293 6.0708,10.86092 9.6528,9.65283 26.6,9.73531 35.4148,0.17236 l 2.4159,-2.62093 -0.072,2.57814 c -0.1388,4.95934 -0.6764,6.12037 -3.8033,8.21303 -6.4596,4.32304 -17.69,5.75317 -25.5195,3.24977 l 0,0 z"
       id="path3706"
       inkscape:connector-curvature="0" />
    <path
       style="fill:#333333;fill-opacity:1;stroke:#000000;stroke-width:3.62539697;stroke-miterlimit:4;stroke-opacity:0;stroke-dasharray:none;stroke-dashoffset:0"
       d="m -1572.7741,-313.26161 0,-2.6455 4.2206,0 c 6.1602,0 6.0496,0.26301 6.2794,-14.92293 l 0.1825,-12.0612 2.7275,-3.9e-4 2.7275,-3.8e-4 -0.1228,5.15911 c -0.067,2.83752 -0.1984,8.49245 -0.2909,12.56653 -0.1296,5.70953 -0.3741,7.79528 -1.0671,9.09963 -1.8772,3.53353 -5.9769,5.41022 -11.8789,5.4377 l -2.7778,0.0129 0,-2.6455 z"
       id="path3713"
       inkscape:connector-curvature="0" />
    <path
       style="fill:#333333;fill-opacity:1;stroke:#000000;stroke-width:3.62539697;stroke-miterlimit:4;stroke-opacity:0;stroke-dasharray:none;stroke-dashoffset:0"
       d="m -1481.5854,-310.63873 c -4.3334,-0.76771 -8.2359,-2.4493 -12.2878,-5.29485 -6.7983,-4.77427 -11.3421,-12.15108 -12.2008,-19.80795 -0.2556,-2.27899 -0.3422,-4.46284 -0.1925,-4.85301 0.2009,-0.52346 1.5749,-0.7094 5.2421,-0.7094 l 4.9699,0 0,-2.02342 c 0,-1.62842 0.568,-2.78273 2.91,-5.91309 l 2.9101,-3.88967 0,13.3205 c 0,7.32627 -0.097,13.3205 -0.2145,13.3205 -0.5301,0 -5.6056,-7.36438 -5.6056,-8.13351 0,-0.65201 -0.5141,-0.86121 -2.1164,-0.86121 -1.1641,0 -2.1139,0.0595 -2.1107,0.13228 0,0.0727 0.3607,1.30264 0.7947,2.73309 3.6818,12.13686 17.6528,19.20576 30.681,15.52364 5.2294,-1.47796 11.4251,-6.31651 14.24,-11.12086 1.5865,-2.70774 2.9558,-7.71938 2.9558,-10.81846 l 0,-2.26979 2.9101,0 2.91,0 0,2.30873 c 0,6.79893 -2.8324,13.48947 -8.2062,19.38439 -4.1852,4.59115 -6.3794,5.88351 -12.9944,7.6538 -5.6786,1.5197 -10.8309,1.98509 -14.5948,1.31829 z"
       id="path3715"
       inkscape:connector-curvature="0" />
    <path
       style="fill:#333333;fill-opacity:1;stroke:#000000;stroke-width:3.62539697;stroke-miterlimit:4;stroke-opacity:0;stroke-dasharray:none;stroke-dashoffset:0"
       d="m -1511.1577,298.42427 0,-2.39524 3.836,-0.377 c 2.1098,-0.20735 4.1584,-0.6384 4.5525,-0.95788 1.5641,-1.26803 1.8509,-3.66394 2.1504,-17.96022 l 0.3077,-14.69035 2.3206,3.84379 2.3205,3.84379 -0.3035,12.32867 c -0.3459,14.04633 -0.5363,14.75092 -4.5938,16.99724 -1.719,0.95163 -3.3882,1.3455 -6.4545,1.52301 l -4.1359,0.23942 0,-2.39523 z"
       id="path3717"
       inkscape:connector-curvature="0"
       inkscape:export-filename="C:\Users\akash\BrainSTEM-hackathon\PI_hackathon\name_700.png"
       inkscape:export-xdpi="124.46282"
       inkscape:export-ydpi="124.46282" />
    <path
       style="fill:#333333;fill-opacity:1;stroke:#000000;stroke-width:3.62539697;stroke-miterlimit:4;stroke-opacity:0;stroke-dasharray:none;stroke-dashoffset:0"
       d="m -1421.7804,-345.53675 c 0,-3.34656 0.086,-4.7156 0.1909,-3.04232 0.105,1.67328 0.105,4.41137 0,6.08465 -0.105,1.67328 -0.1909,0.30424 -0.1909,-3.04233 z"
       id="path3719"
       inkscape:connector-curvature="0" />
    <path
       style="fill:#333333;fill-opacity:1;stroke:#000000;stroke-width:3.62539697;stroke-miterlimit:4;stroke-opacity:0;stroke-dasharray:none;stroke-dashoffset:0"
       d="m -1357.9593,-313.18302 0,-2.72409 3.4047,0 c 5.7129,0 6.2175,-0.39957 6.9077,-5.46966 0.3446,-2.53236 0.3598,-2.54926 1.422,-1.58794 0.5905,0.53441 1.6771,2.00129 2.4146,3.25974 l 1.3409,2.28809 -1.5353,2.18453 c -2.2419,3.18974 -4.1228,4.07958 -9.4126,4.45288 l -4.542,0.32054 0,-2.72409 z"
       id="path3721"
       inkscape:connector-curvature="0" />
    <path
       style="fill:#333333;fill-opacity:1;stroke:#000000;stroke-width:3.62539697;stroke-miterlimit:4;stroke-opacity:0;stroke-dasharray:none;stroke-dashoffset:0"
       d="m -1347.9064,-349.80433 c 0,-9.82575 -0.2734,-11.76927 -1.7988,-12.78781 -0.3202,-0.21379 -2.3083,-0.39236 -4.4181,-0.39682 l -3.836,-0.008 0,-2.72393 0,-2.72392 4.2962,0.3313 c 4.8766,0.37606 6.7,1.22166 9.1398,4.23874 l 1.6434,2.03224 0.1785,11.06299 0.1785,11.063 -2.6918,0 -2.6917,0 0,-10.08769 z"
       id="path3723"
       inkscape:connector-curvature="0" />
    <path
       style="fill:#333333;fill-opacity:1;stroke:#000000;stroke-width:3.62539697;stroke-miterlimit:4;stroke-opacity:0;stroke-dasharray:none;stroke-dashoffset:0"
       d="m -1285.4725,-321.9136 0,-3.36098 14.3799,-16.21574 14.3799,-16.21574 3.0804,0 c 1.6942,0 3.0804,0.14641 3.0804,0.32535 0,0.17894 -2.3949,3.03608 -5.3221,6.3492 -2.9271,3.31313 -5.2328,6.02387 -5.1237,6.02387 0.1091,0 -1.0033,1.2467 -2.472,2.77045 l -2.6704,2.77045 2.1063,0.37366 c 1.1584,0.20551 4.2341,0.38738 6.8349,0.40415 l 4.7286,0.0305 -1.5207,1.5873 c -0.8364,0.87302 -1.3117,1.5873 -1.0561,1.5873 0.2556,0 0,0.34957 -0.5624,0.77683 -0.7837,0.59275 -2.7386,0.78081 -8.2503,0.79365 l -7.2233,0.0168 -6.982,7.67196 c -3.8401,4.21957 -7.0777,7.67195 -7.1947,7.67195 -0.117,0 -0.2127,-1.51244 -0.2127,-3.36098 z"
       id="path3725"
       inkscape:connector-curvature="0" />
    <path
       style="fill:#333333;fill-opacity:1;stroke:#000000;stroke-width:3.62539697;stroke-miterlimit:4;stroke-opacity:0;stroke-dasharray:none;stroke-dashoffset:0"
       d="m -1216.6895,-322.00816 0,-3.51801 14.3455,-16.08994 14.3454,-16.08995 3.1461,0 c 2.3742,0 3.0495,0.16228 2.7523,0.66138 -0.2166,0.36375 -2.8497,3.4282 -5.8513,6.80987 -3.0016,3.38167 -5.4575,6.28002 -5.4575,6.44078 0,0.16076 -0.7143,1.00657 -1.5873,1.87959 -0.8731,0.87301 -1.5873,1.80928 -1.5873,2.08059 0,0.53301 5.3932,1.16558 9.9894,1.17165 l 2.8465,0.004 -2.0529,2.33111 -2.0529,2.33112 -7.417,0.0498 -7.417,0.0498 -6.5571,7.42881 c -3.6063,4.08585 -6.7567,7.55228 -7.0009,7.70318 -0.2442,0.15091 -0.444,-1.30872 -0.444,-3.24362 z"
       id="path3727"
       inkscape:connector-curvature="0" />
    <path
       style="fill:#333333;fill-opacity:1;stroke:#000000;stroke-width:3.62539697;stroke-miterlimit:4;stroke-opacity:0;stroke-dasharray:none;stroke-dashoffset:0"
       d="m -1148.4355,-352.41505 0,-31.21693 2.9101,0 2.91,0 0,13.75661 0,13.75661 5.291,0 5.291,0 0,2.8909 0,2.89089 -5.1587,0.15144 -5.1587,0.15143 -0.1408,14.41799 -0.1408,14.41799 -2.9015,0 -2.9016,0 0,-31.21693 z"
       id="path3729"
       inkscape:connector-curvature="0" />
    <path
       style="fill:#666666;fill-opacity:1;stroke:#000000;stroke-width:3.62539697;stroke-miterlimit:4;stroke-opacity:0;stroke-dasharray:none;stroke-dashoffset:0"
       d="m -1095.0082,-310.69005 c -5.561,-0.43106 -8.3324,-1.1448 -12.422,-3.19914 -8.5386,-4.2892 -14.7155,-12.90866 -15.8545,-22.12375 -0.1978,-1.60052 -0.4775,-3.32672 -0.6215,-3.83597 -0.2377,-0.83995 0.2572,-0.92593 5.3292,-0.92593 l 5.5912,0 0,-2.03437 c 0,-1.4731 0.5808,-2.93287 2.1049,-5.29101 1.1577,-1.79115 2.2291,-3.25663 2.381,-3.25663 0.1518,0 0.276,5.47619 0.276,12.16931 0,7.76014 -0.1917,12.16932 -0.5291,12.16932 -0.291,0 -0.4815,-0.17858 -0.4233,-0.39683 0.058,-0.21825 -0.6656,-1.5873 -1.6083,-3.04233 -0.9427,-1.45502 -1.8525,-3.1935 -2.0218,-3.86326 -0.2681,-1.06078 -0.5894,-1.1972 -2.4922,-1.0582 -2.142,0.15645 -2.1816,0.19524 -2.035,1.99139 0.2148,2.63121 3.3328,7.88626 6.3585,10.71646 2.5346,2.37082 6.9759,5.07761 6.9922,4.2614 0,-0.22417 0.183,-0.13589 0.3968,0.19616 0.7216,1.12078 6.084,2.30639 10.4054,2.30059 6.5406,-0.009 12.47,-2.25434 17.0152,-6.44397 2.3694,-2.1841 2.5376,-2.11992 2.3426,0.89414 -0.3168,4.89811 -5.7459,8.85399 -13.8984,10.12701 -1.2367,0.19311 -2.3676,0.49601 -2.5131,0.67312 -0.1455,0.17711 -2.2937,0.16473 -4.7738,-0.0275 l 0,0 z"
       id="path3731"
       inkscape:connector-curvature="0" />
    <path
       style="fill:#666666;fill-opacity:1;stroke:#000000;stroke-width:3.62539697;stroke-miterlimit:4;stroke-opacity:0;stroke-dasharray:none;stroke-dashoffset:0"
       d="m -1534.635,-329.13463 -12.8291,-19.04762 -9.745,0 -9.7449,0 0,13.75662 0,13.75661 -3.1746,0 -3.1746,0 0,-25.92593 c 0,-14.25926 0.1227,-25.92592 0.2727,-25.92592 0.15,0 1.5785,0.86704 3.1746,1.92676 l 2.9019,1.92676 0,7.3325 0,7.3325 16.3823,0 c 19.3325,0 20.2956,-0.193 25.1406,-5.03796 3.835,-3.83506 5.224,-7.50339 4.9181,-12.98918 -0.3741,-6.71071 -3.8437,-11.85487 -9.9331,-14.72719 -2.871,-1.35426 -3.1007,-1.37504 -17.1347,-1.55045 -7.8236,-0.0978 -15.0184,-0.0289 -15.9883,0.15306 -2.5214,0.47301 -3.3849,1.56882 -3.3849,4.29533 0,3.60089 1.1716,4.45956 6.0846,4.45956 l 3.9683,0 0,10.31746 0,10.31746 -2.9101,0 -2.91,0 0,-7.33818 0,-7.33818 -1.8736,-0.30403 c -4.7544,-0.77154 -8.2549,-5.04755 -8.2549,-10.08377 0,-1.5865 0.362,-3.58456 0.8044,-4.44012 1.1485,-2.221 4.2009,-4.73723 6.5319,-5.38454 2.4647,-0.68446 26.6174,-0.72864 31.261,-0.0572 13.4586,1.94613 22.6121,15.86708 18.8273,28.63303 -1.2095,4.07975 -2.4151,6.2421 -5.2191,9.36073 -4.0703,4.52714 -8.8321,6.765 -15.7913,7.42114 l -4.0054,0.37765 12.8963,18.91535 12.8963,18.91534 -3.5788,0 -3.5787,0 -12.8292,-19.04762 0,0 z"
       id="path3733"
       inkscape:connector-curvature="0" />
    <path
       style="fill:#666666;fill-opacity:1;stroke:#000000;stroke-width:3.62539697;stroke-miterlimit:4;stroke-opacity:0;stroke-dasharray:none;stroke-dashoffset:0"
       d="m -1505.3029,-347.25632 c 0.1906,-0.65476 1.0474,-2.72105 1.9038,-4.59176 6.6595,-14.54601 26.1731,-21.13156 40.9424,-13.81749 7.1692,3.55028 13.713,11.06125 15.3623,17.63269 0.3591,1.43067 0.3466,1.43792 -2.4742,1.43598 l -2.8351,-0.002 -1.777,-3.43658 c -3.3734,-6.52381 -10.1226,-11.214 -17.9861,-12.49891 -10.951,-1.78944 -21.9573,3.9329 -26.3326,13.69072 l -1.2455,2.77778 -2.9524,0 c -2.8117,0 -2.9358,-0.0567 -2.6056,-1.19047 z"
       id="path3735"
       inkscape:connector-curvature="0" />
    <path
       style="fill:#666666;fill-opacity:1;stroke:#000000;stroke-width:3.62539697;stroke-miterlimit:4;stroke-opacity:0;stroke-dasharray:none;stroke-dashoffset:0"
       d="m -1437.8535,-326.75367 0,-31.48149 2.9101,0 2.91,0 0,11.64021 0,11.64022 5.5063,0 5.5063,0 0.9506,3.0221 c 1.9937,6.33848 8.4021,12.49501 15.303,14.7015 3.9439,1.26103 11.4737,1.31655 15.4372,0.11382 13.6751,-4.14974 20.5994,-19.46014 14.5779,-32.23312 -2.6477,-5.6165 -8.33,-10.54172 -14.2043,-12.31184 -9.1451,-2.75575 -18.2752,-0.87788 -24.8218,5.10534 l -2.9113,2.66076 0,-3.95104 0,-3.95103 1.996,-1.32086 c 5.2996,-3.50709 9.5185,-4.95179 15.9935,-5.47663 13.2502,-1.07403 26.7845,7.87989 30.7362,20.33415 2.2071,6.95616 1.3527,16.39203 -2.0194,22.30156 -3.6972,6.47926 -10.8166,12.24356 -17.7775,14.39376 -4.3048,1.32974 -11.9024,1.54253 -16.4949,0.46198 -8.3137,-1.95611 -16.5634,-8.59253 -19.947,-16.04622 l -0.9007,-1.98413 -3.4651,0 -3.465,0 0,16.93122 0,16.93122 -2.91,0 -2.9101,0 0,-31.48148 z"
       id="path3737"
       inkscape:connector-curvature="0" />
    <path
       style="fill:#666666;fill-opacity:1;stroke:#000000;stroke-width:3.62539697;stroke-miterlimit:4;stroke-opacity:0;stroke-dasharray:none;stroke-dashoffset:0"
       d="m -1325.6346,-310.65228 c -4.3459,-0.77184 -9.2664,-3.43685 -12.0609,-6.53232 -2.2033,-2.4407 -5.4084,-8.12718 -6.1248,-10.86669 -0.2561,-0.97915 -0.6952,-1.08334 -4.5657,-1.08334 l -4.2823,0 0,4.23281 0,4.2328 -2.91,0 -2.9101,0 0,-18.78307 0,-18.78307 2.9101,0 2.91,0 0,11.64021 0,11.64022 6.5151,0 6.5151,0 1.1897,4.10053 c 2.0291,6.99296 6.6736,12.46758 11.8606,13.98029 2.8493,0.83097 8.8782,0.8217 12.2793,-0.0189 5.8921,-1.45619 11.3727,-7.02302 13.5906,-13.80431 1.0404,-3.18092 1.1519,-4.88005 1.3645,-20.79204 l 0.2315,-17.32804 2.9186,0 2.9185,0 -0.272,17.32804 c -0.2847,18.13345 -0.4882,19.87125 -3.0188,25.7748 -2.6892,6.27364 -9.0512,12.13716 -15.2447,14.05014 -4.1816,1.29154 -9.8867,1.70945 -13.8143,1.01191 l 0,0 z"
       id="path3739"
       inkscape:connector-curvature="0" />
    <path
       style="fill:#666666;fill-opacity:1;stroke:#000000;stroke-width:3.62539697;stroke-miterlimit:4;stroke-opacity:0;stroke-dasharray:none;stroke-dashoffset:0"
       d="m -1277.1741,-319.34627 8.3132,-9.25926 3.5989,0 c 1.9795,0 3.599,0.12912 3.599,0.28692 0,0.1578 -2.4016,2.95542 -5.3368,6.21693 l -5.3368,5.93002 23.5908,0.13772 23.5907,0.13772 0,2.90461 0,2.9046 -30.166,0 -30.1661,0 8.3131,-9.25926 z"
       id="path3741"
       inkscape:connector-curvature="0" />
    <path
       style="fill:#666666;fill-opacity:1;stroke:#000000;stroke-width:3.62539697;stroke-miterlimit:4;stroke-opacity:0;stroke-dasharray:none;stroke-dashoffset:0"
       d="m -1254.7847,-344.17438 c 0,-0.12372 3.5714,-4.22862 7.9365,-9.122 4.3651,-4.89338 7.9365,-9.07787 7.9365,-9.29887 0,-0.221 -10.4762,-0.40181 -23.2804,-0.40181 l -23.2804,0 0,-2.91006 0,-2.91005 29.9204,0 c 24.7053,0 29.8468,0.12224 29.4974,0.70132 -0.2327,0.38572 -5.1575,5.98096 -10.944,12.43386 l -10.5209,11.73255 -3.6325,0 c -1.9979,0 -3.6326,-0.10123 -3.6326,-0.22494 z"
       id="path3743"
       inkscape:connector-curvature="0" />
    <path
       style="fill:#666666;fill-opacity:1;stroke:#000000;stroke-width:3.62539697;stroke-miterlimit:4;stroke-opacity:0;stroke-dasharray:none;stroke-dashoffset:0"
       d="m -1178.3539,-353.15648 c 4.5239,-5.06387 8.2253,-9.34958 8.2253,-9.52381 0,-0.17422 -10.5953,-0.31677 -23.545,-0.31677 l -23.545,0 0,-2.91006 0,-2.91005 30.1973,0 30.1972,0 -1.4935,1.78869 c -0.8215,0.98378 -5.7793,6.5764 -11.0174,12.42805 l -9.5238,10.63936 -3.8602,0.006 -3.8602,0.006 8.2253,-9.20704 z"
       id="path3745"
       inkscape:connector-curvature="0" />
    <path
       style="fill:#666666;fill-opacity:1;stroke:#000000;stroke-width:3.62539697;stroke-miterlimit:4;stroke-opacity:0;stroke-dasharray:none;stroke-dashoffset:0"
       d="m -1215.2936,-311.80658 c 0.8819,-0.94577 4.6398,-5.11244 8.3509,-9.25926 l 6.7473,-7.53969 3.7398,0 3.7397,0 -1.0051,1.19048 c -0.5528,0.65476 -2.9707,3.36764 -5.373,6.02861 -2.4024,2.66098 -4.3679,4.98241 -4.3679,5.15873 0,0.17633 10.5952,0.3206 23.5449,0.3206 l 23.545,0 0,2.91005 0,2.91005 -30.2625,0 -30.2625,0 1.6034,-1.71957 0,0 z"
       id="path3747"
       inkscape:connector-curvature="0" />
    <path
       style="fill:#666666;fill-opacity:1;stroke:#000000;stroke-width:3.62539697;stroke-miterlimit:4;stroke-opacity:0;stroke-dasharray:none;stroke-dashoffset:0"
       d="m -1148.4355,-312.88674 0,-2.90833 4.2846,-0.19457 c 6.5358,-0.29681 6.2974,0.31316 6.2974,-16.11366 l 0,-13.43345 2.9101,0 2.91,0 0,13.6734 c 0,13.29433 -0.034,13.73804 -1.2315,16.00529 -0.8086,1.53095 -2.1116,2.8771 -3.7937,3.9192 -2.2038,1.36533 -3.1784,1.61339 -6.9695,1.77387 l -4.4074,0.18657 0,-2.90832 z"
       id="path3749"
       inkscape:connector-curvature="0" />
    <path
       style="fill:#666666;fill-opacity:1;stroke:#000000;stroke-width:3.62539697;stroke-miterlimit:4;stroke-opacity:0;stroke-dasharray:none;stroke-dashoffset:0"
       d="m -1137.8535,-373.25591 c 0,-15.21853 0.1915,-14.76078 -6.2974,-15.05545 l -4.2846,-0.19458 0,-2.92037 0,-2.92038 4.4643,0.23431 c 5.5423,0.2909 8.7677,1.99892 10.7063,5.66944 1.1897,2.25265 1.2315,2.76061 1.2315,14.94709 l 0,12.61519 -2.91,0 -2.9101,0 0,-12.37525 z"
       id="path3751"
       inkscape:connector-curvature="0" />
    <path
       style="fill:#666666;fill-opacity:1;stroke:#000000;stroke-width:3.62539697;stroke-miterlimit:4;stroke-opacity:0;stroke-dasharray:none;stroke-dashoffset:0"
       d="m -1102.9328,-338.39389 0,-2.91005 14.8472,0 14.8472,0 -0.374,-2.51323 c -1.5626,-10.4982 -7.9431,-17.28739 -17.6604,-18.79149 -9.9809,-1.5449 -19.6567,3.53468 -24.2047,12.70684 l -1.902,3.83597 -2.8296,0 c -1.5563,0 -2.827,-0.0595 -2.8238,-0.13227 0.031,-0.72624 1.6996,-5.4398 2.4151,-6.82409 2.8138,-5.44388 8.3818,-10.73508 13.8352,-13.14736 1.307,-0.57814 4.3069,-1.44236 6.6666,-1.92049 3.585,-0.7264 5.0649,-0.77396 9.0013,-0.2893 6.3715,0.7845 10.5444,2.77911 14.8759,7.11068 5.4165,5.41649 8.0317,11.69448 8.5919,20.62611 l 0.3236,5.15873 -17.8048,0 -17.8047,0 0,-2.91005 z"
       id="path3753"
       inkscape:connector-curvature="0" />
    <path
       inkscape:connector-curvature="0"
       style="font-size:20px;font-style:normal;font-variant:normal;font-weight:normal;font-stretch:normal;line-height:125%;letter-spacing:0px;word-spacing:0px;fill:#000000;fill-opacity:1;stroke:none;font-family:Vani;-inkscape-font-specification:Vani"
       d="m -736.75446,322.3458 c -2.93556,8e-5 -5.45411,1.02791 -7.53125,3.0625 -2.07715,2.03474 -3.09375,4.53035 -3.09375,7.46875 0,2.97663 1.00585,5.47467 3.0625,7.53125 2.05663,2.0567 4.58593,3.09381 7.5625,3.09375 l 0,14.78125 6.28125,0 0,-21.15625 -6.28125,0 c -2.80958,6e-5 -4.21876,-1.39935 -4.21875,-4.25 -10e-6,-2.81243 1.40917,-4.21868 4.21875,-4.21875 l 25.21875,0 c 4.69917,7e-5 8.70552,1.64314 12,4.9375 3.29438,3.2945 4.93744,7.26959 4.9375,11.96875 -6e-5,4.69927 -1.64312,8.70708 -4.9375,12 -3.29448,3.29301 -7.30083,4.93754 -12,4.9375 l -29.4375,0 0,-14.78125 -6.40625,-4.21875 0,52.65625 6.40625,0 0,-27.375 19.25,0 25.5,37.84374 7.9375,0 -25.8125,-37.84374 4.78125,0 0,-0.125 c 5.99995,-0.54782 10.9936,-3.00143 15,-7.40625 4.00629,-4.40474 6.03119,-9.64643 6.03125,-15.6875 -6e-5,-6.42181 -2.27106,-11.87542 -6.78125,-16.40625 -4.51031,-4.53068 -10.00591,-6.81242 -16.46875,-6.8125 l -25.21875,0 z m 414.0625,0 0,6.3125 6.40625,0 c 2.80956,7e-5 4.21874,1.40632 4.21875,4.21875 l 0,23.21875 6.28125,0 0,-23.21875 c -2e-5,-2.89739 -1.00588,-5.38225 -3.0625,-7.4375 -2.05666,-2.0551 -4.54298,-3.09367 -7.4375,-3.09375 l -6.40625,0 z m 0,10.53125 0,63.28125 6.40625,0 0,-29.5625 10.5,0 0,-6.28125 -10.5,0 0,-27.4375 -6.40625,0 z m -327.40625,14.78125 c -7.13382,5e-5 -13.50295,2.12603 -19.125,6.40625 -5.62208,4.28032 -9.21876,9.8682 -10.8125,16.75 l 6.59375,0 c 1.51171,-5.0361 4.46873,-9.11324 8.875,-12.21875 4.27732,-3.06148 9.09567,-4.5937 14.46875,-4.59375 6.62691,5e-5 12.3315,2.24028 17.09375,6.6875 2.95843,2.76284 4.97319,5.94304 6.09375,9.53125 l 6.625,0 c -1.25265,-5.35963 -4.01326,-10.06392 -8.28125,-14.125 -5.95903,-5.62202 -13.14067,-8.43745 -21.53125,-8.4375 z m 38,0 0,6.34375 6.40625,0 c 2.80956,5e-5 4.21874,1.42778 4.21875,4.28125 l 0,18.9375 6.28125,0 0,-18.9375 c -2e-5,-2.97945 -0.99514,-5.50581 -3.03125,-7.5625 -2.03615,-2.05659 -4.53322,-3.06245 -7.46875,-3.0625 l -6.40625,0 z m 41.15625,0 c -7.6348,5e-5 -14.32425,2.37212 -20.03125,7.15625 l -0.3125,9.6875 c 4.82517,-7.00484 11.61617,-10.49995 20.34375,-10.5 6.62983,5e-5 12.30024,2.24028 17.0625,6.6875 4.76214,4.4473 7.15618,9.94534 7.15625,16.53125 -7e-5,6.58889 -2.39411,12.11525 -7.15625,16.5625 -4.76226,4.44727 -10.43267,6.65625 -17.0625,6.65624 -5.7891,10e-6 -10.92777,-1.73533 -15.375,-5.21874 -4.57327,-3.56542 -7.40725,-8.15916 -8.5,-13.78125 l -10.875,0 0,-23.15625 -6.40625,0 0,63.18749 6.40625,0 0,-33.71874 6.15625,0 c 2.30858,5.78908 6.08884,10.40284 11.3125,13.84374 5.2236,3.44092 10.98824,5.15625 17.28125,5.15625 8.34956,0 15.50922,-2.84619 21.53125,-8.53124 6.0219,-5.68504 9.03117,-12.69139 9.03125,-21 -8e-5,-8.34958 -3.01863,-15.37691 -9.0625,-21.125 -5.95612,-5.62202 -13.1065,-8.43745 -21.5,-8.4375 z m 302.28125,0 c -7.08987,5e-5 -13.28518,2.11675 -18.59375,6.375 -5.3086,4.25834 -8.73145,9.85551 -10.28125,16.78125 l 6.59375,0 c 1.51171,-5.07711 4.28416,-9.15572 8.3125,-12.21875 4.0283,-3.06294 8.68357,-4.5937 13.96875,-4.59375 6.12594,5e-5 11.08882,2.03423 14.90625,6.0625 3.60932,3.77641 5.66206,8.78226 6.125,15.03125 l -29.46875,0 0,6.34375 35.875,0 0,-6.34375 -0.125,0 c -0.46295,-7.9277 -3.13385,-14.42281 -8,-19.5 -5.03618,-5.28803 -11.46684,-7.93745 -19.3125,-7.9375 z m -264.125,0.0625 0,6.28125 6.40625,0 c 2.80956,5e-5 4.21874,1.42778 4.21875,4.28125 l 0,18.9375 6.28125,0 0,-18.9375 c -2e-5,-2.97945 -0.99514,-5.49653 -3.03125,-7.53125 -2.03615,-2.03461 -4.53322,-3.0312 -7.46875,-3.03125 l -6.40625,0 z m 59.09375,0 0,29.5 c -6e-5,6.67385 -1.84967,12.16017 -5.5,16.4375 -3.81744,4.53223 -8.98638,6.78125 -15.53125,6.78124 -9.98734,10e-6 -16.21194,-6.32908 -18.6875,-18.99999 l -12.96875,0 0,-23.15625 -6.40625,0 0,37.875 6.40625,0 0,-8.40625 7.9375,0 c 3.69431,12.67089 11.59274,18.99999 23.71875,18.99999 8.2646,0 14.92279,-2.89844 20,-8.68749 4.86614,-5.49608 7.31243,-12.45017 7.3125,-20.84375 l 0,-29.5 -6.28125,0 z m 13.75,0 0,6.28125 47,0 -16.9375,19 8.5,0 22.65625,-25.28125 -61.21875,0 z m 68.625,0 0,6.28125 47,0 -16.9375,19 8.5,0 22.65625,-25.28125 -61.21875,0 z m -39.6875,10.5625 -28.9375,32.53125 0,9.31249 14.84375,-16.59374 14.34375,0 5.65625,-6.3125 -14.34375,0 16.9375,-18.9375 -8.5,0 z m 68.625,0 -28.9375,32.53125 0,9.31249 14.84375,-16.59374 14.34375,0 5.65625,-6.3125 -14.34375,0 16.9375,-18.9375 -8.5,0 z m -301.4375,4.21875 -6.28125,8.3125 0,4.28125 -10.5,0 c -0.085,0.67385 -0.125,1.3721 -0.125,2.125 0,8.30861 3.04003,15.34572 9.125,21.09375 5.95604,5.62206 13.10642,8.43749 21.5,8.43749 2.60153,0 6.39254,-0.77246 11.34375,-2.28125 5.70405,-1.76367 8.581,-3.41601 8.625,-4.96874 7.08978,-5.91503 10.62494,-13.34275 10.625,-22.28125 0,-0.63921 -0.0271,-1.25104 -0.0625,-1.875 l -6.375,0 c 0.0449,0.61922 0.0937,1.23561 0.0937,1.875 -6e-5,6.46291 -2.4356,11.95851 -7.28125,16.46875 -4.84575,4.51026 -10.50883,6.75 -16.96875,6.74999 -5.79202,10e-6 -10.92727,-1.75682 -15.4375,-5.28124 -4.51027,-3.5244 -7.31642,-8.09666 -8.40625,-13.71875 l 3.84375,0 0,2.09375 6.28125,8.4375 0,-29.46875 z m 382.5,0 -6.28125,8.3125 0,4.28125 -10.5,0 c -0.085,0.67385 -0.125,1.3721 -0.125,2.125 0,8.30861 3.04003,15.34572 9.125,21.09375 5.95604,5.62206 13.10642,8.43749 21.5,8.43749 7.59371,0 14.26167,-2.4248 19.96875,-7.24999 l 0.3125,-9.6875 c -4.7813,7.08985 -11.55375,10.625 -20.28125,10.62499 -5.79202,10e-6 -10.92727,-1.75682 -15.4375,-5.28124 -4.51027,-3.5244 -7.31642,-8.09666 -8.40625,-13.71875 l 3.84375,0 0,2.09375 6.28125,8.4375 0,-29.46875 z m -30.75,8.3125 0,25.34375 c -1e-5,2.85352 -1.40919,4.28125 -4.21875,4.28124 l -6.40625,0 0,6.3125 6.40625,0 c 2.89452,0 5.38084,-1.03857 7.4375,-3.09375 2.05662,-2.05517 3.06248,-4.56151 3.0625,-7.49999 l 0,-25.34375 -6.28125,0 z m -424.6875,2.1875 0,23.15625 c -10e-6,2.85352 -1.40919,4.28125 -4.21875,4.28124 l -6.40625,0 0,6.3125 6.40625,0 c 2.89452,0 5.38084,-1.03857 7.4375,-3.09375 2.05662,-2.05517 3.06248,-4.56151 3.0625,-7.49999 l 0,-23.15625 -6.28125,0 z m 293.71875,14.75 -16.90625,18.87499 0.125,0 -0.125,0.125 61.21875,0 0,-6.3125 -47.125,0 11.25,-12.56249 -8.4375,-0.125 z m 68.625,0 -16.90625,18.87499 0.125,0 -0.125,0.125 61.21875,0 0,-6.3125 -47.125,0 11.25,-12.56249 -8.4375,-0.125 z m -227.0625,2.0625 0,31.65624 c -10e-6,2.80955 -1.40919,4.21873 -4.21875,4.21875 l -6.40625,0 0,6.28125 6.40625,0 c 2.93553,-3e-5 5.4326,-0.99661 7.46875,-3.03125 2.03611,-2.03469 3.03123,-4.53322 3.03125,-7.46875 l 0,-21.03125 -6.28125,-10.62499 z m 79.3125,2.15625 0,4.1875 c -10e-6,2.85352 -1.40919,4.28125 -4.21875,4.28124 l -6.40625,0 0,6.3125 6.40625,0 c 2.51659,0 4.75633,-0.80176 6.75,-2.375 1.99363,-1.57324 3.24607,-3.60839 3.75,-6.12499 l -4.78125,-6.28125 -1.5,0 z"
       id="flowRoot2985-4-8" />
    <path
       style="fill:#333333;fill-opacity:1;stroke:#000000;stroke-width:4.17852449;stroke-miterlimit:4;stroke-opacity:0;stroke-dasharray:none;stroke-dashoffset:0"
       d="m -746.97727,403.49459 0,-2.74422 4.17426,0 c 6.32404,0 6.19277,0.31449 6.19277,-14.83628 l 0,-12.60586 3.10153,0 3.10154,0 -0.20487,13.00496 c -0.19984,12.68658 -0.24193,13.05902 -1.71895,15.21313 -2.33834,3.4103 -5.18674,4.71248 -10.30808,4.71248 l -4.3382,0 0,-2.74421 z"
       id="path3690-6"
       inkscape:connector-curvature="0" />
    <path
       style="fill:#333333;fill-opacity:1;stroke:#000000;stroke-width:4.17852449;stroke-miterlimit:4;stroke-opacity:0;stroke-dasharray:none;stroke-dashoffset:0"
       d="m -611.59602,429.19075 0,-2.66073 3.99332,-0.32054 c 6.60301,-0.53003 6.32675,0.2559 6.51637,-18.53795 l 0.16226,-16.08091 2.62523,4.36479 2.62523,4.36479 -0.18593,12.67365 c -0.17113,11.66486 -0.28585,12.81055 -1.44128,14.39353 -2.01165,2.75604 -6.01407,4.46409 -10.46055,4.46409 l -3.83465,0 0,-2.66072 z"
       id="path3692-2"
       inkscape:connector-curvature="0" />
    <path
       style="fill:#333333;fill-opacity:1;stroke:#000000;stroke-width:4.17852449;stroke-miterlimit:4;stroke-opacity:0;stroke-dasharray:none;stroke-dashoffset:0"
       d="m -601.22898,366.60015 c 0,-12.60685 -0.0997,-12.80634 -6.40317,-12.80634 l -3.96387,0 0,-2.74421 0,-2.74421 4.48351,0 c 5.08505,0 7.52549,1.18066 9.98534,4.83084 1.31365,1.94933 1.38662,2.63046 1.38662,12.94428 l 0,10.88667 -2.74422,0 -2.74421,0 0,-10.36703 z"
       id="path3694-8"
       inkscape:connector-curvature="0" />
    <path
       style="fill:#333333;fill-opacity:1;stroke:#000000;stroke-width:4.17852449;stroke-miterlimit:4;stroke-opacity:0;stroke-dasharray:none;stroke-dashoffset:0"
       d="m -521.95167,366.60015 c 0,-12.60685 -0.0997,-12.80634 -6.40317,-12.80634 l -3.96386,0 0,-2.74421 0,-2.74421 4.48351,0 c 5.08504,0 7.52548,1.18066 9.98533,4.83084 1.31366,1.94933 1.38662,2.63046 1.38662,12.94428 l 0,10.88667 -2.74422,0 -2.74421,0 0,-10.36703 z"
       id="path3696-0"
       inkscape:connector-curvature="0" />
    <path
       style="fill:#333333;fill-opacity:1;stroke:#000000;stroke-width:4.17852449;stroke-miterlimit:4;stroke-opacity:0;stroke-dasharray:none;stroke-dashoffset:0"
       d="m -532.3187,403.49459 0,-2.74422 3.96386,0 c 5.12692,0 6.40317,-1.09392 6.40317,-5.48842 0,-1.67702 0.25105,-3.04913 0.55789,-3.04913 0.76139,0 4.93054,5.75049 4.93054,6.80068 0,1.5845 -2.9708,5.21968 -5.08598,6.22341 -1.34225,0.63694 -3.68827,1.00189 -6.44041,1.00189 l -4.32907,0 0,-2.74421 z"
       id="path3698-9"
       inkscape:connector-curvature="0" />
    <path
       style="fill:#333333;fill-opacity:1;stroke:#000000;stroke-width:4.17852449;stroke-miterlimit:4;stroke-opacity:0;stroke-dasharray:none;stroke-dashoffset:0"
       d="m -459.74947,395.08243 0,-3.83848 14.45324,-16.28577 14.45325,-16.28576 3.53661,0 c 1.94513,0 3.5366,0.15651 3.5366,0.3478 0,0.19129 -3.56748,4.28831 -7.92773,9.10449 -4.36025,4.81619 -7.92773,8.90422 -7.92773,9.08453 0,0.1803 3.03588,0.40542 6.74639,0.50025 l 6.74639,0.17243 -2.22022,2.59176 -2.22022,2.59176 -7.23004,0 -7.23004,0 -7.14004,7.92773 c -3.92703,4.36026 -7.23824,7.92773 -7.35826,7.92773 -0.12001,0 -0.2182,-1.72731 -0.2182,-3.83847 z"
       id="path3700-8"
       inkscape:connector-curvature="0" />
    <path
       style="fill:#333333;fill-opacity:1;stroke:#000000;stroke-width:4.17852449;stroke-miterlimit:4;stroke-opacity:0;stroke-dasharray:none;stroke-dashoffset:0"
       d="m -390.82279,395.05671 -0.0164,-4.16912 14.34938,-16.10759 14.34939,-16.10758 3.70081,0 3.7008,0 -3.06307,3.50649 c -1.68469,1.92858 -5.27715,5.97629 -7.98325,8.99493 -2.7061,3.01864 -4.92235,5.69425 -4.925,5.9458 -0.003,0.25155 3.04948,0.45737 6.78251,0.45737 l 6.78733,0 -2.3661,2.68677 -2.36609,2.68677 -7.33157,0.0574 -7.33157,0.0574 -5.47476,6.13297 c -3.01113,3.37312 -6.22205,7.0092 -7.13539,8.08018 l -1.66061,1.94724 -0.0164,-4.16911 z"
       id="path3702-0"
       inkscape:connector-curvature="0" />
    <path
       style="fill:#333333;fill-opacity:1;stroke:#000000;stroke-width:4.17852449;stroke-miterlimit:4;stroke-opacity:0;stroke-dasharray:none;stroke-dashoffset:0"
       d="m -322.53874,364.46576 0,-31.40601 3.04913,0 3.04913,0 0,13.72107 0,13.72107 5.18352,0 5.18351,0 0,3.04913 0,3.04913 -5.18351,0 -5.18352,0 0,14.63581 0,14.63582 -3.04913,0 -3.04913,0 0,-31.40602 z"
       id="path3704-4"
       inkscape:connector-curvature="0" />
    <path
       style="fill:#333333;fill-opacity:1;stroke:#000000;stroke-width:4.17852449;stroke-miterlimit:4;stroke-opacity:0;stroke-dasharray:none;stroke-dashoffset:0"
       d="m -276.92519,405.06135 c -11.89807,-3.80428 -19.47841,-13.14085 -20.95288,-25.80732 l -0.40818,-3.5065 5.5587,0 5.55869,0 0,-2.46547 c 0,-1.95505 0.53656,-3.17674 2.59176,-5.90121 l 2.59176,-3.43575 0.17274,6.47724 c 0.095,3.56249 0.095,9.55955 0,13.32681 l -0.17274,6.84957 -2.59176,-3.43556 c -1.42547,-1.88956 -2.59176,-3.99618 -2.59176,-4.68138 0,-1.01724 -0.39161,-1.24582 -2.13439,-1.24582 -1.80865,0 -2.13348,0.2094 -2.12843,1.37211 0.0108,2.49039 2.93911,7.7293 6.07073,10.86092 9.65284,9.65282 26.60004,9.7353 35.41486,0.17236 l 2.41589,-2.62093 -0.0722,2.57814 c -0.13879,4.95934 -0.67645,6.12037 -3.80335,8.21302 -6.45957,4.32304 -17.68998,5.75317 -25.51949,3.24977 l 0,0 z"
       id="path3706-9"
       inkscape:connector-curvature="0" />
    <path
       style="fill:#333333;fill-opacity:1;stroke:#000000;stroke-width:3.62539697;stroke-miterlimit:4;stroke-opacity:0;stroke-dasharray:none;stroke-dashoffset:0"
       d="m -746.81203,403.432 0,-2.6455 4.22061,0 c 6.16023,0 6.04956,0.26301 6.27938,-14.92292 l 0.18253,-12.0612 2.72752,-3.9e-4 2.72752,-3.8e-4 -0.12282,5.15911 c -0.0675,2.83751 -0.19846,8.49245 -0.29091,12.56653 -0.12957,5.70953 -0.37416,7.79528 -1.0671,9.09962 -1.87721,3.53353 -5.97693,5.41022 -11.87895,5.4377 l -2.77778,0.0129 0,-2.6455 z"
       id="path3713-6"
       inkscape:connector-curvature="0" />
    <path
       style="fill:#333333;fill-opacity:1;stroke:#000000;stroke-width:3.62539697;stroke-miterlimit:4;stroke-opacity:0;stroke-dasharray:none;stroke-dashoffset:0"
       d="m -655.62331,406.05488 c -4.33343,-0.76771 -8.23591,-2.4493 -12.28783,-5.29485 -6.79832,-4.77426 -11.34208,-12.15107 -12.20076,-19.80794 -0.25558,-2.27899 -0.34219,-4.46285 -0.19247,-4.85301 0.20087,-0.52347 1.57485,-0.7094 5.24207,-0.7094 l 4.96985,0 0,-2.02342 c 0,-1.62842 0.56808,-2.78274 2.91005,-5.91309 l 2.91005,-3.88967 0,13.3205 c 0,7.32627 -0.0965,13.3205 -0.21447,13.3205 -0.53008,0 -5.60563,-7.36438 -5.60563,-8.13351 0,-0.65201 -0.51411,-0.86121 -2.11641,-0.86121 -1.16402,0 -2.11382,0.0595 -2.11067,0.13228 0.003,0.0728 0.36076,1.30264 0.7947,2.73309 3.68181,12.13686 17.65283,19.20575 30.68105,15.52364 5.2294,-1.47796 11.42504,-6.31651 14.23999,-11.12086 1.58652,-2.70774 2.95578,-7.71938 2.95578,-10.81846 l 0,-2.26979 2.91005,0 2.91006,0 0,2.30873 c 0,6.79893 -2.83237,13.48947 -8.20617,19.38439 -4.18528,4.59114 -6.37942,5.8835 -12.99441,7.65379 -5.67862,1.5197 -10.83098,1.98509 -14.59483,1.31829 z"
       id="path3715-8"
       inkscape:connector-curvature="0" />
    <path
       style="fill:#333333;fill-opacity:1;stroke:#000000;stroke-width:3.62539697;stroke-miterlimit:4;stroke-opacity:0;stroke-dasharray:none;stroke-dashoffset:0"
       d="m -611.3623,429.21506 0,-2.39524 3.83598,-0.377 c 2.10979,-0.20735 4.1584,-0.6384 4.55248,-0.95788 1.56407,-1.26803 1.85094,-3.66394 2.15039,-17.96022 l 0.30772,-14.69034 2.32055,3.84379 2.32056,3.84378 -0.30355,12.32867 c -0.34583,14.04633 -0.53626,14.75092 -4.59381,16.99724 -1.71894,0.95163 -3.38816,1.3455 -6.45444,1.52301 l -4.13588,0.23942 0,-2.39523 z"
       id="path3717-2"
       inkscape:connector-curvature="0" />
    <path
       style="fill:#333333;fill-opacity:1;stroke:#000000;stroke-width:3.62539697;stroke-miterlimit:4;stroke-opacity:0;stroke-dasharray:none;stroke-dashoffset:0"
       d="m -595.81829,371.15687 c 0,-3.34656 0.0859,-4.71561 0.19091,-3.04233 0.105,1.67329 0.105,4.41138 0,6.08466 -0.105,1.67328 -0.19091,0.30423 -0.19091,-3.04233 z"
       id="path3719-8"
       inkscape:connector-curvature="0" />
    <path
       style="fill:#333333;fill-opacity:1;stroke:#000000;stroke-width:3.62539697;stroke-miterlimit:4;stroke-opacity:0;stroke-dasharray:none;stroke-dashoffset:0"
       d="m -531.99722,403.51059 0,-2.72409 3.40471,0 c 5.71293,0 6.21754,-0.39957 6.90765,-5.46965 0.34469,-2.53236 0.35982,-2.54926 1.42207,-1.58794 0.59051,0.53441 1.67707,2.00129 2.41457,3.25974 l 1.34091,2.28809 -1.53535,2.18452 c -2.24183,3.18974 -4.12277,4.07958 -9.41251,4.45288 l -4.54205,0.32054 0,-2.72409 z"
       id="path3721-4"
       inkscape:connector-curvature="0" />
    <path
       style="fill:#333333;fill-opacity:1;stroke:#000000;stroke-width:3.62539697;stroke-miterlimit:4;stroke-opacity:0;stroke-dasharray:none;stroke-dashoffset:0"
       d="m -521.94431,366.88928 c 0,-9.82574 -0.27338,-11.76926 -1.79878,-12.7878 -0.32019,-0.2138 -2.30836,-0.39237 -4.41815,-0.39682 l -3.83598,-0.008 0,-2.72393 0,-2.72392 4.29622,0.3313 c 4.87663,0.37606 6.69995,1.22165 9.13975,4.23873 l 1.6434,2.03224 0.17851,11.063 0.17851,11.063 -2.69174,0 -2.69174,0 0,-10.08769 z"
       id="path3723-7"
       inkscape:connector-curvature="0" />
    <path
       style="fill:#333333;fill-opacity:1;stroke:#000000;stroke-width:3.62539697;stroke-miterlimit:4;stroke-opacity:0;stroke-dasharray:none;stroke-dashoffset:0"
       d="m -459.51044,394.78002 0,-3.36098 14.3799,-16.21574 14.37991,-16.21574 3.08041,0 c 1.69423,0 3.08041,0.14641 3.08041,0.32535 0,0.17894 -2.39493,3.03608 -5.32207,6.3492 -2.92714,3.31313 -5.23281,6.02386 -5.12372,6.02386 0.10909,0 -1.00332,1.24671 -2.47202,2.77046 l -2.67036,2.77045 2.10626,0.37366 c 1.15844,0.20551 4.23413,0.38738 6.83487,0.40415 l 4.72862,0.0305 -1.52073,1.5873 c -0.8364,0.87302 -1.31163,1.5873 -1.05607,1.5873 0.25557,0 0.002,0.34957 -0.56238,0.77682 -0.7837,0.59276 -2.7386,0.78082 -8.25034,0.79366 l -7.22329,0.0168 -6.982,7.67196 c -3.8401,4.21957 -7.07771,7.67195 -7.1947,7.67195 -0.11699,0 -0.2127,-1.51244 -0.2127,-3.36098 z"
       id="path3725-9"
       inkscape:connector-curvature="0" />
    <path
       style="fill:#333333;fill-opacity:1;stroke:#000000;stroke-width:3.62539697;stroke-miterlimit:4;stroke-opacity:0;stroke-dasharray:none;stroke-dashoffset:0"
       d="m -390.72738,394.68546 0,-3.51801 14.34543,-16.08994 14.34543,-16.08995 3.14612,0 c 2.37418,0 3.04949,0.16228 2.75231,0.66138 -0.21658,0.36375 -2.84968,3.42819 -5.85133,6.80986 -3.00164,3.38167 -5.45753,6.28003 -5.45753,6.44078 0,0.16076 -0.71429,1.00658 -1.5873,1.8796 -0.87302,0.87301 -1.58731,1.80928 -1.58731,2.08059 0,0.53301 5.39321,1.16557 9.9894,1.17165 l 2.84653,0.004 -2.05288,2.33111 -2.05289,2.33112 -7.41703,0.0498 -7.41703,0.0498 -6.55702,7.42881 c -3.60635,4.08585 -6.75678,7.55228 -7.00095,7.70318 -0.24417,0.15091 -0.44395,-1.30872 -0.44395,-3.24362 z"
       id="path3727-4"
       inkscape:connector-curvature="0" />
    <path
       style="fill:#333333;fill-opacity:1;stroke:#000000;stroke-width:3.62539697;stroke-miterlimit:4;stroke-opacity:0;stroke-dasharray:none;stroke-dashoffset:0"
       d="m -322.47341,364.27857 0,-31.21694 2.91006,0 2.91005,0 0,13.75662 0,13.75661 5.291,0 5.29101,0 0,2.8909 0,2.89089 -5.15873,0.15143 -5.15873,0.15144 -0.14078,14.41799 -0.14078,14.41799 -2.90155,0 -2.90155,0 0,-31.21693 z"
       id="path3729-0"
       inkscape:connector-curvature="0" />
    <path
       style="fill:#666666;fill-opacity:1;stroke:#000000;stroke-width:3.62539697;stroke-miterlimit:4;stroke-opacity:0;stroke-dasharray:none;stroke-dashoffset:0"
       d="m -269.04613,406.00356 c -5.56095,-0.43106 -8.33235,-1.1448 -12.42199,-3.19914 -8.53861,-4.28919 -14.71554,-12.90865 -15.85445,-22.12374 -0.19781,-1.60053 -0.47753,-3.32672 -0.62159,-3.83598 -0.23761,-0.83994 0.25727,-0.92592 5.32928,-0.92592 l 5.59121,0 0,-2.03437 c 0,-1.4731 0.58073,-2.93287 2.10486,-5.29101 1.15768,-1.79115 2.22911,-3.25663 2.38095,-3.25663 0.15185,0 0.27609,5.47619 0.27609,12.16931 0,7.76014 -0.1917,12.16932 -0.5291,12.16932 -0.291,0 -0.48152,-0.17858 -0.42337,-0.39683 0.0582,-0.21825 -0.66558,-1.5873 -1.60829,-3.04233 -0.94272,-1.45502 -1.85252,-3.1935 -2.02179,-3.86327 -0.26809,-1.06077 -0.58938,-1.19719 -2.49224,-1.0582 -2.14191,0.15645 -2.18155,0.19525 -2.03495,1.9914 0.21475,2.63121 3.33278,7.88626 6.35849,10.71646 2.5346,2.37082 6.97593,5.07761 6.99216,4.2614 0.004,-0.22417 0.18303,-0.13589 0.39683,0.19616 0.72162,1.12078 6.08405,2.30638 10.40539,2.30058 6.5406,-0.009 12.46998,-2.25433 17.01519,-6.44396 2.36947,-2.1841 2.53763,-2.11992 2.34268,0.89414 -0.31682,4.8981 -5.74595,8.85398 -13.89849,10.127 -1.2367,0.19311 -2.36759,0.49601 -2.51309,0.67312 -0.1455,0.17711 -2.2937,0.16473 -4.77378,-0.0275 l 0,0 z"
       id="path3731-7"
       inkscape:connector-curvature="0" />
    <path
       style="fill:#666666;fill-opacity:1;stroke:#000000;stroke-width:3.62539697;stroke-miterlimit:4;stroke-opacity:0;stroke-dasharray:none;stroke-dashoffset:0"
       d="m -708.67289,387.55899 -12.82914,-19.04762 -9.74495,0 -9.74495,0 0,13.75661 0,13.75662 -3.1746,0 -3.1746,0 0,-25.92593 c 0,-14.25926 0.12271,-25.92592 0.27269,-25.92592 0.14998,0 1.57855,0.86704 3.1746,1.92676 l 2.90191,1.92676 0,7.3325 0,7.33249 16.38227,0 c 19.33258,0 20.29566,-0.19299 25.14062,-5.03795 3.83506,-3.83506 5.22402,-7.5034 4.91816,-12.98918 -0.37416,-6.71072 -3.84376,-11.85487 -9.93311,-14.72719 -2.87104,-1.35426 -3.10073,-1.37504 -17.13476,-1.55045 -7.82359,-0.0978 -15.01832,-0.0289 -15.98828,0.15306 -2.52135,0.47301 -3.3849,1.56882 -3.3849,4.29533 0,3.60089 1.17158,4.45956 6.08466,4.45956 l 3.96825,0 0,10.31746 0,10.31746 -2.91005,0 -2.91005,0 0,-7.33818 0,-7.33818 -1.87355,-0.30403 c -4.75445,-0.77154 -8.25495,-5.04755 -8.25495,-10.08378 0,-1.5865 0.36199,-3.58455 0.80442,-4.44011 1.14852,-2.221 4.20089,-4.73723 6.53184,-5.38454 2.46474,-0.68447 26.61748,-0.72864 31.26104,-0.0572 13.45856,1.94612 22.61213,15.86708 18.82733,28.63303 -1.20955,4.07975 -2.41517,6.2421 -5.21908,9.36073 -4.0703,4.52714 -8.83219,6.765 -15.79131,7.42114 l -4.00548,0.37765 12.89633,18.91535 12.89632,18.91533 -3.57876,0 -3.57877,0 -12.82915,-19.04761 0,0 z"
       id="path3733-4"
       inkscape:connector-curvature="0" />
    <path
       style="fill:#666666;fill-opacity:1;stroke:#000000;stroke-width:3.62539697;stroke-miterlimit:4;stroke-opacity:0;stroke-dasharray:none;stroke-dashoffset:0"
       d="m -679.34086,369.4373 c 0.19069,-0.65477 1.04743,-2.72106 1.90388,-4.59176 6.65945,-14.54601 26.17303,-21.13157 40.94241,-13.81749 7.16911,3.55028 13.71296,11.06125 15.36228,17.63269 0.35908,1.43067 0.34658,1.43792 -2.47423,1.43597 l -2.83514,-0.002 -1.77699,-3.43658 c -3.37334,-6.5238 -10.12257,-11.21399 -17.98603,-12.4989 -10.95107,-1.78944 -21.95736,3.9329 -26.33262,13.69072 l -1.24551,2.77778 -2.95238,0 c -2.81173,0 -2.93587,-0.0567 -2.60567,-1.19048 z"
       id="path3735-8"
       inkscape:connector-curvature="0" />
    <path
       style="fill:#666666;fill-opacity:1;stroke:#000000;stroke-width:3.62539697;stroke-miterlimit:4;stroke-opacity:0;stroke-dasharray:none;stroke-dashoffset:0"
       d="m -611.8914,389.93995 0,-31.48149 2.91006,0 2.91005,0 0,11.64021 0,11.64021 5.50631,0 5.50631,0 0.95057,3.02211 c 1.9937,6.33848 8.40209,12.49501 15.30295,14.7015 3.94389,1.26102 11.47377,1.31654 15.43723,0.11382 13.67506,-4.14974 20.59943,-19.46014 14.57795,-32.23312 -2.64776,-5.61651 -8.33003,-10.54172 -14.20432,-12.31184 -9.14514,-2.75575 -18.27519,-0.87788 -24.82179,5.10534 l -2.9113,2.66076 0,-3.95104 0,-3.95103 1.99596,-1.32086 c 5.29958,-3.5071 9.51853,-4.95179 15.99346,-5.47663 13.2502,-1.07403 26.78456,7.87989 30.73621,20.33415 2.20714,6.95616 1.35275,16.39203 -2.01934,22.30156 -3.6972,6.47926 -10.81659,12.24355 -17.77752,14.39375 -4.30484,1.32974 -11.90242,1.54253 -16.4949,0.46198 -8.31367,-1.95611 -16.56339,-8.59252 -19.94703,-16.04621 l -0.90071,-1.98413 -3.46502,0 -3.46502,0 0,16.93121 0,16.93122 -2.91005,0 -2.91006,0 0,-31.48147 z"
       id="path3737-1"
       inkscape:connector-curvature="0" />
    <path
       style="fill:#666666;fill-opacity:1;stroke:#000000;stroke-width:3.62539697;stroke-miterlimit:4;stroke-opacity:0;stroke-dasharray:none;stroke-dashoffset:0"
       d="m -499.67248,406.04133 c -4.34595,-0.77184 -9.26647,-3.43685 -12.0609,-6.53231 -2.20336,-2.4407 -5.40846,-8.12718 -6.12486,-10.86669 -0.25605,-0.97915 -0.69515,-1.08334 -4.56563,-1.08334 l -4.28234,0 0,4.23281 0,4.2328 -2.91005,0 -2.91006,0 0,-18.78307 0,-18.78307 2.91006,0 2.91005,0 0,11.64021 0,11.64021 6.51507,0 6.51508,0 1.18979,4.10054 c 2.02905,6.99296 6.67357,12.46758 11.86051,13.98028 2.8493,0.83097 8.87821,0.8217 12.27934,-0.0189 5.89208,-1.45618 11.37275,-7.02301 13.59064,-13.8043 1.04036,-3.18092 1.15186,-4.88005 1.36444,-20.79204 l 0.23149,-17.32804 2.91859,0 2.91859,0 -0.27203,17.32804 c -0.28468,18.13345 -0.48821,19.87125 -3.01878,25.7748 -2.68919,6.27364 -9.05127,12.13715 -15.24478,14.05013 -4.18152,1.29154 -9.88667,1.70945 -13.81422,1.01191 l 0,0 z"
       id="path3739-8"
       inkscape:connector-curvature="0" />
    <path
       style="fill:#666666;fill-opacity:1;stroke:#000000;stroke-width:3.62539697;stroke-miterlimit:4;stroke-opacity:0;stroke-dasharray:none;stroke-dashoffset:0"
       d="m -451.21197,397.34735 8.31312,-9.25926 3.59897,0 c 1.97943,0 3.59896,0.12912 3.59896,0.28692 0,0.1578 -2.40157,2.95542 -5.33681,6.21693 l -5.33681,5.93001 23.59078,0.13772 23.59078,0.13772 0,2.90461 0,2.9046 -30.16606,0 -30.16605,0 8.31312,-9.25925 z"
       id="path3741-2"
       inkscape:connector-curvature="0" />
    <path
       style="fill:#666666;fill-opacity:1;stroke:#000000;stroke-width:3.62539697;stroke-miterlimit:4;stroke-opacity:0;stroke-dasharray:none;stroke-dashoffset:0"
       d="m -428.82261,372.51923 c 0,-0.12371 3.57143,-4.22861 7.9365,-9.12199 4.36508,-4.89338 7.93651,-9.07787 7.93651,-9.29887 0,-0.221 -10.47619,-0.40181 -23.28042,-0.40181 l -23.28042,0 0,-2.91006 0,-2.91005 29.92047,0 c 24.70528,0 29.84672,0.12224 29.49735,0.70132 -0.23271,0.38572 -5.15751,5.98096 -10.94399,12.43386 l -10.52087,11.73254 -3.63257,0 c -1.99791,0 -3.63256,-0.10122 -3.63256,-0.22494 z"
       id="path3743-2"
       inkscape:connector-curvature="0" />
    <path
       style="fill:#666666;fill-opacity:1;stroke:#000000;stroke-width:3.62539697;stroke-miterlimit:4;stroke-opacity:0;stroke-dasharray:none;stroke-dashoffset:0"
       d="m -352.39181,363.53714 c 4.5239,-5.06387 8.22528,-9.34958 8.22528,-9.52381 0,-0.17423 -10.59524,-0.31677 -23.54497,-0.31677 l -23.54498,0 0,-2.91006 0,-2.91005 30.19726,0 30.19725,0 -1.49355,1.78869 c -0.82145,0.98377 -5.77926,6.5764 -11.01736,12.42805 l -9.52381,10.63936 -3.8602,0.006 -3.86021,0.006 8.22529,-9.20704 z"
       id="path3745-1"
       inkscape:connector-curvature="0" />
    <path
       style="fill:#666666;fill-opacity:1;stroke:#000000;stroke-width:3.62539697;stroke-miterlimit:4;stroke-opacity:0;stroke-dasharray:none;stroke-dashoffset:0"
       d="m -389.33148,404.88703 c 0.88191,-0.94577 4.63979,-5.11243 8.35084,-9.25925 l 6.74737,-7.53969 3.73971,0 3.73972,0 -1.00511,1.19048 c -0.55281,0.65476 -2.97067,3.36764 -5.37301,6.02861 -2.40235,2.66098 -4.3679,4.9824 -4.3679,5.15872 0,0.17633 10.59524,0.3206 23.54497,0.3206 l 23.54498,0 0,2.91005 0,2.91005 -30.26253,0 -30.26252,0 1.60348,-1.71957 0,0 z"
       id="path3747-4"
       inkscape:connector-curvature="0" />
    <path
       style="fill:#666666;fill-opacity:1;stroke:#000000;stroke-width:3.62539697;stroke-miterlimit:4;stroke-opacity:0;stroke-dasharray:none;stroke-dashoffset:0"
       d="m -322.47341,403.80687 0,-2.90833 4.28464,-0.19457 c 6.53576,-0.29681 6.29737,0.31316 6.29737,-16.11365 l 0,-13.43345 2.91006,0 2.91005,0 0,13.6734 c 0,13.29433 -0.0341,13.73804 -1.23156,16.00528 -0.80854,1.53095 -2.11158,2.8771 -3.79366,3.9192 -2.20382,1.36533 -3.17844,1.61339 -6.9695,1.77387 l -4.4074,0.18657 0,-2.90832 z"
       id="path3749-6"
       inkscape:connector-curvature="0" />
    <path
       style="fill:#666666;fill-opacity:1;stroke:#000000;stroke-width:3.62539697;stroke-miterlimit:4;stroke-opacity:0;stroke-dasharray:none;stroke-dashoffset:0"
       d="m -311.8914,343.43771 c 0,-15.21853 0.19147,-14.76078 -6.29737,-15.05545 l -4.28464,-0.19458 0,-2.92038 0,-2.92038 4.4643,0.23432 c 5.54228,0.2909 8.76774,1.99892 10.70626,5.66943 1.18971,2.25265 1.23156,2.76061 1.23156,14.94709 l 0,12.6152 -2.91005,0 -2.91006,0 0,-12.37525 z"
       id="path3751-6"
       inkscape:connector-curvature="0" />
    <path
       style="fill:#666666;fill-opacity:1;stroke:#000000;stroke-width:3.62539697;stroke-miterlimit:4;stroke-opacity:0;stroke-dasharray:none;stroke-dashoffset:0"
       d="m -276.97076,378.29973 0,-2.91005 14.84723,0 14.84724,0 -0.37406,-2.51323 c -1.56253,-10.4982 -7.94306,-17.28739 -17.66038,-18.79149 -9.98089,-1.5449 -19.65673,3.53468 -24.20464,12.70683 l -1.90203,3.83598 -2.82959,0 c -1.55628,0 -2.82701,-0.0595 -2.82386,-0.13227 0.0314,-0.72624 1.69964,-5.4398 2.41515,-6.82409 2.81381,-5.44389 8.38183,-10.73509 13.83518,-13.14736 1.30697,-0.57814 4.30695,-1.44236 6.66663,-1.92049 3.58493,-0.7264 5.06485,-0.77396 9.00123,-0.2893 6.37157,0.7845 10.54442,2.77911 14.87599,7.11068 5.41649,5.41649 8.03161,11.69448 8.59189,20.62611 l 0.32361,5.15873 -17.8048,0 -17.80479,0 0,-2.91005 z"
       id="path3753-9"
       inkscape:connector-curvature="0" />
    <path
       style="fill:#333333;fill-opacity:1;stroke:#000000;stroke-width:3.62539697;stroke-miterlimit:4;stroke-opacity:0;stroke-dasharray:none;stroke-dashoffset:0"
       d="m -708.62991,387.07062 -12.85129,-19.05903 -9.84767,0.14369 -9.84767,0.14368 -0.14121,13.62434 -0.14121,13.62433 -2.90112,0 -2.90112,0 0.0675,-15.74074 c 0.0371,-8.6574 0.21572,-20.08 0.39683,-25.38355 l 0.32928,-9.64282 2.51323,1.63665 2.51323,1.63664 0,7.37718 0,7.37717 17.59259,-0.16465 c 17.12003,-0.16024 17.65894,-0.19734 20.0627,-1.38146 2.84726,-1.40259 6.1712,-4.80253 7.94058,-8.12213 1.03473,-1.94131 1.22683,-3.08753 1.22806,-7.32773 10e-4,-4.42715 -0.1739,-5.38356 -1.46932,-8.02146 -1.62595,-3.31096 -4.45351,-6.15019 -7.85113,-7.88353 -2.12394,-1.08354 -2.98005,-1.13957 -18.54229,-1.21339 -8.97354,-0.0426 -16.31557,0.11523 -16.31561,0.35066 -5e-5,0.23543 -0.2112,0.29757 -0.46923,0.1381 -1.67961,-1.03805 -2.56988,5.35174 -0.96873,6.95289 0.92708,0.92708 1.82442,1.09967 6.06751,1.16703 l 2.77778,0.0441 0,10.05291 0,10.05291 -2.63058,0 -2.63057,0 -0.1472,-7.25412 -0.14721,-7.25412 -1.66233,-0.33931 c -4.92859,-1.00599 -8.58662,-6.08567 -7.92272,-11.0018 0.37493,-2.77633 1.36074,-4.32519 4.23197,-6.64907 1.96171,-1.58774 2.0835,-1.61149 10.01867,-1.95359 4.41805,-0.19047 12.13902,-0.17242 17.1577,0.0401 9.10693,0.38568 9.13259,0.39025 13.04659,2.32465 4.77491,2.35989 8.76061,6.47199 11.0914,11.44315 2.17849,4.64636 2.53605,10.90722 0.89192,15.61762 -2.24705,6.43776 -7.9106,12.34483 -13.64472,14.23141 -2.05751,0.67695 -8.4927,1.85202 -10.38149,1.89568 -0.822,0.019 0.008,1.331 11.43683,18.07424 6.22909,9.12578 11.75014,17.24708 12.269,18.04735 l 0.94338,1.45503 -3.15554,0 -3.15554,0 -12.85129,-19.05903 0,0 z"
       id="path3863"
       inkscape:connector-curvature="0" />
    <path
       style="fill:#333333;fill-opacity:1;stroke:#000000;stroke-width:3.62539697;stroke-miterlimit:4;stroke-opacity:0;stroke-dasharray:none;stroke-dashoffset:0"
       d="m -679.00723,369.60666 c 0,-0.29929 0.87083,-2.38262 1.93518,-4.62963 4.71419,-9.95241 15.61839,-16.51934 27.4299,-16.51934 8.36563,0 14.60034,2.67287 20.93944,8.9769 2.66659,2.65184 4.57043,5.12123 5.68783,7.37745 2.25319,4.54955 2.20805,4.80993 -0.83362,4.80841 l -2.51323,-0.001 -1.57678,-3.01744 c -2.9868,-5.71577 -9.6497,-10.78217 -16.14809,-12.27882 -5.5149,-1.27014 -12.52731,-0.44482 -17.76537,2.09088 -3.72903,1.8052 -8.32626,6.37919 -10.35502,10.3027 l -1.77379,3.4304 -2.51322,0.002 c -1.38228,10e-4 -2.51323,-0.24291 -2.51323,-0.54219 z"
       id="path3865"
       inkscape:connector-curvature="0" />
    <path
       style="fill:#333333;fill-opacity:1;stroke:#000000;stroke-width:3.62539697;stroke-miterlimit:4;stroke-opacity:0;stroke-dasharray:none;stroke-dashoffset:0"
       d="m -611.81146,389.72753 0,-31.21693 2.6455,0 2.6455,0 0,11.62231 0,11.62231 5.63839,0.15018 5.6384,0.15017 0.9365,2.75824 c 1.84292,5.42787 6.71852,10.79734 12.27453,13.51785 3.45154,1.69005 10.07012,2.76934 13.58557,2.21539 1.32154,-0.20825 3.03058,-0.43612 3.79788,-0.50639 3.29067,-0.30135 12.59776,-5.90021 11.84167,-7.12359 -0.14724,-0.23823 0.0779,-0.56578 0.50031,-0.72787 1.10881,-0.42549 3.40224,-4.25685 4.60708,-7.69651 1.41451,-4.03821 1.50595,-10.45679 0.20656,-14.49836 -1.9666,-6.11682 -7.95828,-12.40588 -14.03093,-14.72734 -3.69165,-1.41124 -11.95228,-1.93514 -15.83306,-1.00416 -1.48933,0.35729 -2.70787,0.81329 -2.70787,1.01334 0,0.20006 -0.45495,0.39801 -1.011,0.43989 -1.30103,0.098 -4.79936,2.31048 -7.47394,4.7268 l -2.09707,1.89458 0,-3.65534 0,-3.65534 3.34976,-1.95953 c 4.8795,-2.85439 8.93937,-4.10842 14.3751,-4.44024 6.13681,-0.37463 9.97274,0.3753 15.42931,3.01643 9.9272,4.80504 16.6168,15.14502 16.57209,25.61515 -0.0142,3.32198 -1.42785,9.24104 -2.95021,12.35263 -2.60355,5.32146 -9.72675,11.7886 -15.89831,14.43404 -3.78079,1.62063 -11.76634,2.38225 -16.5114,1.57475 -8.35449,-1.42173 -17.225,-7.81716 -21.15777,-15.25427 l -1.76095,-3.33006 -3.52805,0.15546 -3.52804,0.15546 -0.13971,16.79894 -0.1397,16.79894 -2.63807,0 -2.63807,0 0,-31.21693 z"
       id="path3867"
       inkscape:connector-curvature="0" />
    <path
       style="fill:#333333;fill-opacity:1;stroke:#000000;stroke-width:3.62539697;stroke-miterlimit:4;stroke-opacity:0;stroke-dasharray:none;stroke-dashoffset:0"
       d="m -501.88451,405.10221 c -6.38272,-2.0404 -10.91531,-6.19559 -14.14877,-12.97071 -0.87906,-1.8419 -1.59829,-3.59217 -1.59829,-3.8895 0,-0.6123 -7.48242,-1.44744 -8.71852,-0.9731 -0.62235,0.23881 -0.80529,1.21428 -0.80529,4.29388 l 0,3.98485 -2.6455,0 -2.64551,0 0,-18.51851 0,-18.51852 2.64551,0 2.6455,0 0,11.64021 0,11.64021 6.59135,0 6.59135,0 1.10301,3.7037 c 0.60666,2.03704 1.37071,3.70371 1.69789,3.70371 0.32719,0 0.44565,0.14923 0.26325,0.33163 -0.57078,0.57078 1.23798,3.46134 3.98044,6.36109 3.60522,3.81198 6.0737,4.6982 12.89012,4.62775 4.54627,-0.047 5.7833,-0.25832 8.32581,-1.42231 3.95126,-1.80895 7.95701,-5.88841 9.93727,-10.12011 2.08126,-4.44755 2.56449,-9.25149 2.58559,-25.70398 0.009,-7.12963 0.16019,-13.49867 0.33566,-14.15344 0.27479,-1.02537 0.67203,-1.19047 2.8643,-1.19047 l 2.54526,0 -0.22,6.74603 c -0.12101,3.71032 -0.33161,11.50794 -0.468,17.32804 -0.27332,11.66204 -0.82273,14.78267 -3.56669,20.25841 -2.03173,4.05443 -7.39362,9.29452 -11.55357,11.29111 -5.41253,2.59777 -13.3016,3.25407 -18.63217,1.55003 l 0,0 z"
       id="path3869"
       inkscape:connector-curvature="0" />
    <path
       style="fill:#333333;fill-opacity:1;stroke:#000000;stroke-width:3.62539697;stroke-miterlimit:4;stroke-opacity:0;stroke-dasharray:none;stroke-dashoffset:0"
       d="m -423.06283,366.31483 c 7.75375,-8.8537 10.3702,-12.03637 10.10942,-12.29715 -0.12888,-0.12888 -10.63895,-0.39947 -23.35571,-0.60131 l -23.12139,-0.36699 0,-2.5604 0,-2.56039 15.47619,0.001 c 8.5119,6e-4 21.71366,0.15754 29.33723,0.34877 l 13.86105,0.34768 -1.04338,1.32644 c -0.57385,0.72954 -5.23342,6.04879 -10.35459,11.82055 l -9.31122,10.4941 -3.40524,0 -3.40524,0 5.21288,-5.95238 z"
       id="path3871"
       inkscape:connector-curvature="0" />
    <path
       style="fill:#333333;fill-opacity:1;stroke:#000000;stroke-width:3.62539697;stroke-miterlimit:4;stroke-opacity:0;stroke-dasharray:none;stroke-dashoffset:0"
       d="m -456.9686,404.30569 c 0.82849,-1.00317 4.36348,-5.03229 7.85555,-8.9536 5.88156,-6.60453 6.4856,-7.1288 8.20106,-7.11802 1.01851,0.006 2.41082,0.16865 3.09402,0.36056 1.16926,0.32843 0.94436,0.69024 -3.83163,6.16419 l -5.0738,5.81527 23.54062,0.13772 23.54063,0.13772 0,2.64006 0,2.64006 -29.4164,0 -29.4164,0 1.50635,-1.82396 z"
       id="path3873"
       inkscape:connector-curvature="0" />
    <path
       style="fill:#333333;fill-opacity:1;stroke:#000000;stroke-width:3.62539697;stroke-miterlimit:4;stroke-opacity:0;stroke-dasharray:none;stroke-dashoffset:0"
       d="m -389.58924,405.89219 c 0,-0.1306 3.48471,-4.1187 7.7438,-8.86243 7.28847,-8.11784 7.87421,-8.64137 9.96159,-8.90372 4.91199,-0.61735 4.8777,-0.25092 -0.56011,5.98532 -2.73679,3.13862 -4.97597,5.93623 -4.97597,6.21693 0,0.32 8.68304,0.51035 23.28042,0.51035 l 23.28043,0 0,2.6455 0,2.64551 -29.36508,0 c -16.1508,0 -29.36508,-0.10686 -29.36508,-0.23746 z"
       id="path3875"
       inkscape:connector-curvature="0" />
    <path
       style="fill:#333333;fill-opacity:1;stroke:#000000;stroke-width:3.62539697;stroke-miterlimit:4;stroke-opacity:0;stroke-dasharray:none;stroke-dashoffset:0"
       d="m -358.54872,371.02177 c 0.53353,-0.68499 3.94625,-4.62795 7.58382,-8.76214 3.63756,-4.13418 6.68028,-7.70189 6.76159,-7.92823 0.1497,-0.41673 -24.09697,-1.10904 -38.90445,-1.11083 l -8.06878,-9.8e-4 0,-2.6455 0,-2.6455 29.9354,0 29.93542,0 -1.76081,2.04541 c -0.96844,1.12498 -5.80843,6.59744 -10.75552,12.16102 l -8.99471,10.1156 -3.351,0.008 -3.35101,0.008 0.97005,-1.24544 z"
       id="path3877"
       inkscape:connector-curvature="0" />
    <path
       style="fill:#333333;fill-opacity:1;stroke:#000000;stroke-width:3.62539697;stroke-miterlimit:4;stroke-opacity:0;stroke-dasharray:none;stroke-dashoffset:0"
       d="m -322.39348,403.95487 c 0,-2.91815 0.30768,-3.11284 4.93746,-3.12433 1.79498,-0.004 3.54633,-0.18787 3.89188,-0.4076 1.45458,-0.9249 1.75268,-3.69469 1.75268,-16.28541 l 0,-12.92852 2.66979,0 2.66979,0 -0.15656,14.23769 -0.15657,14.23769 -1.61433,2.03215 c -2.27127,2.85914 -5.48728,4.29085 -10.15816,4.52223 l -3.83598,0.19002 0,-2.47392 0,0 z"
       id="path3879"
       inkscape:connector-curvature="0" />
    <path
       style="fill:#333333;fill-opacity:1;stroke:#000000;stroke-width:3.62539697;stroke-miterlimit:4;stroke-opacity:0;stroke-dasharray:none;stroke-dashoffset:0"
       d="m -311.81146,343.73023 c 0,-11.25796 -0.32787,-14.07089 -1.74195,-14.94483 -0.33964,-0.20992 -2.52713,-0.28567 -4.86107,-0.16833 -2.95617,0.14861 -3.68175,0.0816 -2.39169,-0.22084 l 1.85185,-0.43416 -1.71958,-0.0697 c -1.7069,-0.0691 -1.71958,-0.0896 -1.71958,-2.77679 l 0,-2.70715 3.57143,0.36423 c 5.07049,0.51712 7.254,1.26445 9.18386,3.14329 2.93794,2.86028 3.11773,3.85412 3.11773,17.23369 l 0,12.1863 -2.6455,0 -2.6455,0 0,-11.60576 z"
       id="path3881"
       inkscape:connector-curvature="0" />
    <path
       style="fill:#666666;fill-opacity:1;stroke:#000000;stroke-width:3.62539697;stroke-miterlimit:4;stroke-opacity:0;stroke-dasharray:none;stroke-dashoffset:0"
       d="m -276.89083,378.08732 0,-2.64551 14.81481,0 c 14.33749,0 14.81482,-0.0333 14.81482,-1.03215 0,-1.97007 -1.14867,-6.37525 -1.66237,-6.37525 -0.28407,0 -0.37485,-0.22917 -0.20174,-0.50927 0.5285,-0.85513 -2.14229,-5.48832 -4.57149,-7.93046 -7.06669,-7.10433 -19.9251,-7.84146 -28.587,-1.63881 -3.19023,2.28447 -5.92836,5.64654 -7.88497,9.68171 -1.20808,2.49145 -1.24115,2.51323 -3.81607,2.51323 -2.56809,0 -2.59336,-0.0164 -2.23746,-1.45503 1.45881,-5.89659 7.87681,-13.73886 13.84543,-16.91799 7.86513,-4.18927 18.25107,-4.39473 26.07912,-0.51592 1.2921,0.64024 3.79797,2.60946 5.56861,4.37604 5.11215,5.10046 7.83329,11.14496 8.49059,18.86024 0.18057,2.11955 0.4384,4.38943 0.57296,5.04419 l 0.24465,1.19048 -17.73494,0 -17.73495,0 0,-2.6455 z"
       id="path3883"
       inkscape:connector-curvature="0" />
    <path
       style="fill:#666666;fill-opacity:1;stroke:#000000;stroke-width:3.62539697;stroke-miterlimit:4;stroke-opacity:0;stroke-dasharray:none;stroke-dashoffset:0"
       d="m -746.7321,403.56256 0,-2.72392 3.86713,0 c 5.569,0 5.76021,-0.22054 6.24679,-7.20484 0.22064,-3.16697 0.41622,-9.03193 0.43462,-13.03325 l 0.0335,-7.27514 2.71506,0 2.71506,0 -0.2392,12.92579 -0.23919,12.92578 -1.41825,2.14313 c -1.93866,2.92952 -4.74032,4.24342 -9.8961,4.641 l -4.21939,0.32538 0,-2.72393 z"
       id="path3885"
       inkscape:connector-curvature="0" />
    <path
       style="fill:#666666;fill-opacity:1;stroke:#000000;stroke-width:3.62539697;stroke-miterlimit:4;stroke-opacity:0;stroke-dasharray:none;stroke-dashoffset:0"
       d="m -657.31411,405.5553 c 0,-0.26612 -0.45767,-0.48386 -1.01705,-0.48386 -0.55938,0 -2.99135,-1.0119 -5.40438,-2.24867 -9.68069,-4.96173 -16.32989,-15.01483 -16.32989,-24.68958 0,-2.00014 0.0222,-2.02149 2.4548,-2.35491 1.35014,-0.18505 3.61204,-0.33647 5.02645,-0.33647 2.4836,0 2.57166,-0.0524 2.57166,-1.53086 0,-0.94055 0.96912,-2.99529 2.51322,-5.32856 l 2.51323,-3.7977 0.14907,6.12221 c 0.082,3.36722 0.082,8.91984 0,12.33915 l -0.14907,6.21693 -2.6455,-4.04355 c -2.55908,-3.91145 -3.61053,-4.70107 -5.68783,-4.27142 -1.19519,0.24719 -1.16651,0.97837 0.17596,4.48646 3.18111,8.31276 11.77098,14.28492 21.56217,14.99124 3.49218,0.25192 8.46744,-0.48468 10.40473,-1.54044 0.58201,-0.31718 1.34723,-0.62534 1.70049,-0.68479 1.30549,-0.21973 9.40379,-6.47519 8.95881,-6.92017 -0.12628,-0.12629 0.30657,-0.76579 0.9619,-1.42113 1.72609,-1.72609 3.54057,-6.92374 3.85609,-11.04594 l 0.27336,-3.57143 2.57441,0 2.57441,0 0,2.98529 c 0,6.54792 -4.32964,15.31349 -10.14761,20.54434 -3.41225,3.06791 -4.46139,3.61279 -10.30546,5.35222 -3.56965,1.06247 -6.09067,1.43099 -10.63159,1.55411 -3.36209,0.0912 -5.95238,-0.0492 -5.95238,-0.32247 z"
       id="path3887"
       inkscape:connector-curvature="0" />
    <path
       style="fill:#666666;fill-opacity:1;stroke:#000000;stroke-width:3.62539697;stroke-miterlimit:4;stroke-opacity:0;stroke-dasharray:none;stroke-dashoffset:0"
       d="m -611.28236,429.18763 0,-2.33884 3.57142,-0.37206 c 1.96429,-0.20464 3.98001,-0.58478 4.47939,-0.84477 1.60296,-0.83452 2.09275,-4.60059 2.44799,-18.82304 l 0.34776,-13.92253 2.24867,3.74123 2.24868,3.74123 -0.0335,7.24548 c -0.0184,3.98501 -0.21212,9.8074 -0.43047,12.93864 -0.38424,5.51009 -0.45389,5.75184 -2.16593,7.51822 -2.17017,2.23905 -5.56115,3.45528 -9.63369,3.45528 l -3.08035,0 0,-2.33884 z"
       id="path3889"
       inkscape:connector-curvature="0" />
    <path
       style="fill:#666666;fill-opacity:1;stroke:#000000;stroke-width:3.62539697;stroke-miterlimit:4;stroke-opacity:0;stroke-dasharray:none;stroke-dashoffset:0"
       d="m -601.22945,366.67687 c 0,-9.55968 -0.28002,-11.50914 -1.79879,-12.52325 -0.32019,-0.2138 -2.30836,-0.39237 -4.41815,-0.39682 l -3.83597,-0.008 0,-2.7211 0,-2.72111 4.15155,0.28455 c 4.52574,0.3102 6.44379,1.06746 8.68955,3.43068 2.17842,2.29234 2.50281,4.21304 2.50281,14.81873 l 0,9.65958 -2.6455,0 -2.6455,0 0,-9.82315 z"
       id="path3891"
       inkscape:connector-curvature="0" />
    <path
       style="fill:#666666;fill-opacity:1;stroke:#000000;stroke-width:3.62539697;stroke-miterlimit:4;stroke-opacity:0;stroke-dasharray:none;stroke-dashoffset:0"
       d="m -531.91728,403.56256 0,-2.72392 3.72775,0 c 3.25239,0 3.89336,-0.16561 5.02645,-1.2987 0.91794,-0.91793 1.30108,-1.88748 1.30681,-3.30688 0.0129,-3.20269 0.65991,-3.68285 2.31388,-1.71721 0.78108,0.92826 1.78993,2.40283 2.2419,3.27683 0.79027,1.52823 0.76164,1.67207 -0.74753,3.75542 -2.14609,2.96259 -4.41686,4.00947 -9.55654,4.40582 l -4.31272,0.33257 0,-2.72393 z"
       id="path3893"
       inkscape:connector-curvature="0" />
    <path
       style="fill:#666666;fill-opacity:1;stroke:#000000;stroke-width:3.62539697;stroke-miterlimit:4;stroke-opacity:0;stroke-dasharray:none;stroke-dashoffset:0"
       d="m -521.90369,367.63758 c -0.0216,-5.16534 -0.14636,-9.97431 -0.27719,-10.68659 -0.27262,-1.48423 -1.69599,-3.24111 -2.54655,-3.14322 -0.31685,0.0365 -2.06419,0.0381 -3.88298,0.004 l -3.30687,-0.0627 0,-2.7211 0,-2.72111 4.23022,0.28994 c 4.80581,0.3294 6.7347,1.21821 9.16241,4.22192 l 1.60007,1.9797 0.24635,11.11554 0.24636,11.11554 -2.71625,0 -2.71625,0 -0.0393,-9.39154 z"
       id="path3895"
       inkscape:connector-curvature="0" />
    <path
       style="fill:#666666;fill-opacity:1;stroke:#000000;stroke-width:3.62539697;stroke-miterlimit:4;stroke-opacity:0;stroke-dasharray:none;stroke-dashoffset:0"
       d="m -457.25805,405.20372 c 1.6934,-2.19377 8.3511,-9.67527 11.5356,-12.96296 3.20922,-3.31323 3.62292,-3.57143 5.72219,-3.57143 1.24458,0 2.26287,0.22816 2.26287,0.50702 0,0.27886 -2.02381,2.88062 -4.49736,5.78168 -2.47354,2.90106 -4.49735,5.41099 -4.49735,5.57763 0,0.16664 10.59524,0.30298 23.54497,0.30298 l 23.54498,0 0,2.6455 0,2.64551 -29.16532,0 c -27.69603,0 -29.12931,-0.0466 -28.45058,-0.92593 z"
       id="path3897"
       inkscape:connector-curvature="0" />
    <path
       style="fill:#666666;fill-opacity:1;stroke:#000000;stroke-width:3.62539697;stroke-miterlimit:4;stroke-opacity:0;stroke-dasharray:none;stroke-dashoffset:0"
       d="m -426.82396,371.10673 c 3.29923,-3.6561 12.61197,-14.61945 13.298,-15.65497 0.4398,-0.66385 0.69406,-1.31256 0.56503,-1.4416 -0.16616,-0.16616 -35.5543,-1.17577 -46.07276,-1.31444 -0.21825,-0.003 -0.39682,-1.0811 -0.39682,-2.39606 l 0,-2.39083 23.9418,0.29201 c 24.72291,0.30152 33.7554,0.63182 33.69547,1.23215 -0.0191,0.1911 -4.49216,5.34745 -9.94018,11.45856 l -9.90549,11.11111 -3.1432,0.16227 -3.14319,0.16228 1.10134,-1.22048 0,0 z"
       id="path3899"
       inkscape:connector-curvature="0" />
    <path
       style="fill:#666666;fill-opacity:1;stroke:#000000;stroke-width:3.62539697;stroke-miterlimit:4;stroke-opacity:0;stroke-dasharray:none;stroke-dashoffset:0"
       d="m -358.90141,372.06262 c 0,-0.11252 3.34184,-4.08639 7.42631,-8.83082 6.41582,-7.45248 7.30113,-8.69628 6.5064,-9.14104 -0.53561,-0.29974 -10.37922,-0.61968 -23.56387,-0.76587 l -22.64397,-0.25106 0,-2.57262 0,-2.57262 29.71163,0 c 28.24466,0 29.67267,0.0457 28.92255,0.92592 -0.43399,0.50926 -5.2574,5.98545 -10.71867,12.16932 l -9.9296,11.24338 -2.85539,0 c -1.57047,0 -2.85539,-0.0921 -2.85539,-0.20459 z"
       id="path3901"
       inkscape:connector-curvature="0" />
    <path
       style="fill:#666666;fill-opacity:1;stroke:#000000;stroke-width:3.62539697;stroke-miterlimit:4;stroke-opacity:0;stroke-dasharray:none;stroke-dashoffset:0"
       d="m -459.4163,394.84629 -0.0142,-3.6114 14.32127,-16.0976 14.32128,-16.09759 3.17027,0 c 2.26142,0 3.06205,0.1751 2.79278,0.61078 -0.20762,0.33593 -3.708,4.44307 -7.77864,9.12698 l -7.40115,8.51621 2.85323,0.3445 c 1.56928,0.18947 4.59127,0.36804 6.71555,0.39682 l 3.86231,0.0523 -1.99023,2.38095 -1.99023,2.38095 -7.42764,0.0361 -7.42764,0.0361 -3.59328,4.06447 c -1.97631,2.23545 -5.12467,5.73113 -6.99637,7.76816 l -3.40309,3.70371 -0.0142,-3.6114 0,0 z"
       id="path3903"
       inkscape:connector-curvature="0" />
    <path
       style="fill:#666666;fill-opacity:1;stroke:#000000;stroke-width:3.62539697;stroke-miterlimit:4;stroke-opacity:0;stroke-dasharray:none;stroke-dashoffset:0"
       d="m -390.64744,394.61858 0,-3.57457 12.49426,-14.01803 c 6.87185,-7.70991 13.30984,-14.922 14.30666,-16.02686 1.75873,-1.94935 1.90594,-2.00418 4.97231,-1.85185 l 3.15992,0.15698 -6.36844,7.40741 c -3.50265,4.07407 -6.70046,7.76621 -7.10626,8.20475 -1.93619,2.09241 -1.39433,2.3645 5.26112,2.64181 l 6.34921,0.26455 -2.31606,2.51322 -2.31607,2.51323 -7.27988,0 -7.27989,0 -6.74306,7.67196 c -3.70869,4.21958 -6.83099,7.67196 -6.93845,7.67196 -0.10745,0 -0.19537,-1.60856 -0.19537,-3.57456 z"
       id="path3905"
       inkscape:connector-curvature="0" />
    <path
       style="fill:#666666;fill-opacity:1;stroke:#000000;stroke-width:3.62539697;stroke-miterlimit:4;stroke-opacity:0;stroke-dasharray:none;stroke-dashoffset:0"
       d="m -322.39348,364.3307 0,-31.21693 2.91006,0 2.91005,0 0,13.75662 0,13.75661 5.31866,0 5.31865,0 -0.15992,2.77778 -0.15993,2.77778 -5.15873,0.15143 -5.15873,0.15144 0,14.5311 0,14.5311 -2.91005,0 -2.91006,0 0,-31.21693 z"
       id="path3907"
       inkscape:connector-curvature="0" />
    <path
       style="fill:#666666;fill-opacity:1;stroke:#000000;stroke-width:3.62539697;stroke-miterlimit:4;stroke-opacity:0;stroke-dasharray:none;stroke-dashoffset:0"
       d="m -270.54919,405.56623 c -13.48985,-1.43407 -23.52392,-10.6421 -26.31119,-24.14516 -0.49252,-2.38602 -0.73152,-4.50217 -0.53113,-4.70256 0.20039,-0.2004 2.60767,-0.48169 5.34949,-0.62511 l 4.98514,-0.26075 0.32785,-2.05026 c 0.2824,-1.76599 3.16672,-7.33528 3.79893,-7.33528 0.12054,0 0.20726,5.17857 0.19272,11.50793 l -0.0264,11.50794 -2.11115,-4.12992 -2.11114,-4.12991 -2.22749,0.16166 c -2.22527,0.1615 -2.22736,0.16367 -2.10638,2.18594 0.38837,6.49154 9.09521,14.75278 17.61848,16.71678 7.71539,1.77783 16.56902,-0.12784 22.47206,-4.83694 l 2.6455,-2.11042 0.16328,1.60914 c 0.30041,2.96044 -2.09529,5.9629 -6.51249,8.16191 -1.38383,0.68892 -10.90292,3.15835 -11.44115,2.96805 -0.10948,-0.0387 -1.98818,-0.26058 -4.17488,-0.49304 l 0,0 z"
       id="path3909"
       inkscape:connector-curvature="0" />
    <path
       style="fill:#333333;fill-opacity:1;stroke:#000000;stroke-width:3.62539697;stroke-miterlimit:4;stroke-opacity:0;stroke-dasharray:none;stroke-dashoffset:0"
       d="m -270.74851,405.56751 c -13.41902,-1.55707 -23.3434,-10.73444 -26.11187,-24.14644 -0.49252,-2.38602 -0.73152,-4.50217 -0.53113,-4.70256 0.20039,-0.2004 2.60767,-0.48169 5.34949,-0.62511 l 4.98514,-0.26075 0.32785,-2.05026 c 0.2824,-1.76599 3.16672,-7.33528 3.79893,-7.33528 0.12054,0 0.21175,5.17857 0.20269,11.50793 l -0.0165,11.50794 -2.16122,-4.10053 c -1.9969,-3.78875 -2.28731,-4.09991 -3.81951,-4.09243 -2.5564,0.0125 -3.11354,0.59938 -2.69367,2.83747 0.85645,4.5653 7.18093,11.72788 12.63304,14.30714 3.77246,1.78466 6.67919,2.39685 11.41822,2.4048 6.27988,0.0105 11.21779,-1.69403 16.40212,-5.66198 l 2.38095,-1.82232 0.16328,1.60166 c 0.30098,2.95224 -2.09894,5.95723 -6.51249,8.15443 -1.54118,0.76726 -10.77323,3.10875 -11.7057,2.96889 -0.25499,-0.0382 -2.10433,-0.25992 -4.10965,-0.4926 z"
       id="path3911"
       inkscape:connector-curvature="0" />
    <path
       style="fill:#333333;fill-opacity:1;stroke:#000000;stroke-width:3.62539697;stroke-miterlimit:4;stroke-opacity:0;stroke-dasharray:none;stroke-dashoffset:0"
       d="m -426.85976,371.68785 c 0.14297,-0.23134 3.34923,-4.0525 7.12502,-8.49149 3.77579,-4.43898 6.86507,-8.39267 6.86507,-8.78598 0,-0.50826 -0.72693,-0.69882 -2.51322,-0.65884 -1.38228,0.0309 -11.72549,-0.23656 -22.98492,-0.59445 l -20.4717,-0.65072 -0.34803,-2.05999 c -0.19142,-1.133 -0.26487,-2.11689 -0.16323,-2.18643 0.46522,-0.31828 54.81361,0.77906 55.81969,1.12704 1.0325,0.35712 0.45203,1.17507 -6.2869,8.85906 -12.70596,14.48782 -11.43327,13.29851 -14.5515,13.59814 -1.51263,0.14534 -2.63325,0.075 -2.49028,-0.15634 z"
       id="path3913"
       inkscape:connector-curvature="0" />
    <path
       style="fill:#333333;fill-opacity:1;stroke:#000000;stroke-width:3.62539697;stroke-miterlimit:4;stroke-opacity:0;stroke-dasharray:none;stroke-dashoffset:0"
       d="m -444.21887,405.73329 c -6.91138,-0.0835 -12.56614,-0.29924 -12.56614,-0.47933 0,-0.38092 5.56432,-6.68175 10.72488,-12.14447 3.47676,-3.68032 5.06589,-4.58951 6.8983,-3.94673 0.71284,0.25005 0.0683,1.33246 -3.3325,5.59612 -2.31896,2.90736 -4.22112,5.46468 -4.22703,5.68293 -0.006,0.21826 10.5845,0.39683 23.53423,0.39683 l 23.54498,0 0,2.6455 0,2.64551 -16.00529,-0.12224 c -8.80291,-0.0672 -21.66006,-0.19058 -28.57143,-0.27412 z"
       id="path3915"
       inkscape:connector-curvature="0" />
    <path
       style="fill:#333333;fill-opacity:1;stroke:#000000;stroke-width:3.62539697;stroke-miterlimit:4;stroke-opacity:0;stroke-dasharray:none;stroke-dashoffset:0"
       d="m -356.91728,371.90249 c -0.50926,-0.13308 -0.92593,-0.3539 -0.92593,-0.49071 0,-0.1368 1.86404,-2.44077 4.1423,-5.11993 6.87896,-8.0894 9.08521,-10.95697 9.08521,-11.80846 0,-0.64688 -0.58851,-0.78416 -2.90216,-0.67698 -1.59619,0.0739 -3.06444,-0.0279 -3.26279,-0.22619 -0.19834,-0.19835 -5.26141,-0.36136 -11.25127,-0.36225 -5.98986,-8.9e-4 -14.9978,-0.15741 -20.01764,-0.34783 l -9.12698,-0.34621 0,-2.29767 0,-2.29767 14.68254,0.0708 c 8.07539,0.0389 21.21601,0.21751 29.20138,0.39682 l 14.51884,0.32603 -10.28604,11.73304 c -10.60091,12.09222 -10.79037,12.24873 -13.85746,11.44721 z"
       id="path3917"
       inkscape:connector-curvature="0" />
    <path
       style="fill:#333333;fill-opacity:1;stroke:#000000;stroke-width:3.62539697;stroke-miterlimit:4;stroke-opacity:0;stroke-dasharray:none;stroke-dashoffset:0"
       d="m -1098.5355,-311.33381 c -11.5635,-1.65315 -21.6543,-11.24678 -24.1181,-22.92982 -1.3607,-6.45207 -1.6319,-6.08466 4.4916,-6.08466 l 5.291,0 0,-1.45503 c 0.01,-1.52278 1.9283,-5.99007 3.3593,-7.80423 0.767,-0.97245 0.8357,-0.11499 0.848,10.58201 0.013,11.49459 10e-4,11.62169 -0.9629,10.1596 -0.537,-0.81434 -1.5338,-2.67102 -2.2153,-4.12595 -1.215,-2.59404 -1.2806,-2.64228 -3.3853,-2.48764 -2.8687,0.21077 -3.0376,1.55878 -0.7729,6.16757 3.6103,7.34701 10.5593,12.2078 18.9603,13.26267 7.6304,0.9581 13.7737,-0.6783 20.0101,-5.3301 l 2.7778,-2.07196 0,1.73672 c -0.01,4.63764 -4.6258,8.1274 -13.4797,10.18074 -3.8545,0.89393 -5.713,0.92834 -10.8071,0.20008 l 0,0 z"
       id="path3919"
       inkscape:connector-curvature="0" />
    <path
       style="fill:#333333;fill-opacity:1;stroke:#000000;stroke-width:3.62539697;stroke-miterlimit:4;stroke-opacity:0;stroke-dasharray:none;stroke-dashoffset:0"
       d="m -276.89083,378.08732 0,-2.64551 14.81481,0 c 14.33749,0 14.81482,-0.0333 14.81482,-1.03215 0,-1.97007 -1.14867,-6.37525 -1.66237,-6.37525 -0.28407,0 -0.3689,-0.23879 -0.18853,-0.53065 0.58857,-0.95231 -2.53733,-5.85443 -5.40355,-8.47399 -3.64426,-3.33065 -7.55332,-4.83466 -13.38047,-5.14814 -3.6486,-0.19629 -5.1293,-0.0282 -7.84588,0.89041 -6.31492,2.1355 -10.88844,6.07084 -13.96065,12.01262 l -1.73844,3.36224 -2.57059,0.002 c -2.53425,0.002 -2.56578,-0.0186 -2.23073,-1.45307 1.33414,-5.71182 7.92527,-13.75396 13.86554,-16.91799 7.86513,-4.18927 18.25107,-4.39473 26.07912,-0.51592 1.2921,0.64024 3.79797,2.60946 5.56861,4.37604 5.11215,5.10046 7.83329,11.14496 8.49059,18.86024 0.18057,2.11955 0.4384,4.38943 0.57296,5.04419 l 0.24465,1.19048 -17.73494,0 -17.73495,0 0,-2.6455 z"
       id="path3921"
       inkscape:connector-curvature="0" />
    <path
       style="fill:#666666;fill-opacity:1;stroke:#000000;stroke-width:3.62539697;stroke-miterlimit:4;stroke-opacity:0;stroke-dasharray:none;stroke-dashoffset:0"
       d="m -273.71623,404.78571 c -10.85848,-2.43285 -19.13587,-10.35045 -22.26688,-21.29901 -1.72031,-6.01562 -1.38743,-6.98668 2.39504,-6.98668 0.9541,0 2.82687,-0.1497 4.16171,-0.33266 2.38483,-0.32688 2.44213,-0.38085 3.29986,-3.10778 0.48009,-1.52632 1.32437,-3.45996 1.87619,-4.29698 1.00269,-1.52091 1.0033,-1.51553 1.00048,8.79562 l -0.003,10.31746 -1.76609,-3.17461 c -1.74211,-3.1315 -1.79769,-3.1746 -4.09422,-3.1746 -2.15449,0 -2.34076,0.11007 -2.49755,1.47579 -0.46102,4.01584 6.52565,12.3657 13.04752,15.59325 3.65977,1.81116 4.22342,1.93123 9.78836,2.0852 7.25623,0.20077 11.33288,-0.864 16.45281,-4.29729 l 3.47331,-2.32912 -0.002,1.40804 c -0.001,0.77443 -0.46865,2.17342 -1.03903,3.10888 -3.04413,4.99257 -15.16753,8.1546 -23.82674,6.21449 z"
       id="path3923"
       inkscape:connector-curvature="0" />
  </g>
</svg>
